<?xml version="1.0" encoding="UTF-8"?>
<svg xmlns="http://www.w3.org/2000/svg" xmlns:xlink="http://www.w3.org/1999/xlink" width="24px" height="24px" viewBox="0 0 24 24" version="1.1">
<g id="surface1">
<path style=" stroke:none;fill-rule:nonzero;fill:rgb(0%,49.411765%,77.647059%);fill-opacity:1;" d="M 21.195312 7.390625 C 21.199219 7.386719 22.457031 9.878906 22.234375 12.527344 C 22.113281 16.972656 18.183594 22.015625 12.328125 22.179688 L 11.507812 22.164062 C 5.472656 21.863281 1.765625 16.742188 1.78125 12.117188 C 1.796875 11.253906 1.792969 10.292969 2.15625 9.105469 L 2.527344 9.214844 C 4.074219 9.800781 5.742188 14.320312 11.167969 14.574219 C 11.402344 14.585938 11.855469 14.597656 11.855469 14.601562 C 11.503906 14.949219 9.507812 15.773438 8.601562 15.992188 C 8.835938 15.933594 8.582031 15.984375 8.601562 15.992188 C 10.78125 17.34375 12.964844 14.738281 15.796875 14.355469 L 16.664062 14.304688 C 16.5 13.78125 15.75 13.828125 15.683594 13.835938 C 13.722656 14.027344 14.210938 13.800781 14.152344 13.820312 C 17.160156 12.878906 18.898438 10.464844 21.066406 7.53125 Z M 21.195312 7.390625 "/>
<path style=" stroke:none;fill-rule:evenodd;fill:rgb(14.901961%,24.705882%,47.058824%);fill-opacity:1;" d="M 16.816406 2.886719 C 16.605469 2.773438 14.839844 1.710938 12.125 1.671875 C 6.246094 1.691406 3.652344 6.007812 3.652344 6.007812 C 4.957031 6.644531 6.304688 8.566406 6.324219 8.59375 C 7.78125 10.636719 9.8125 13.804688 12.441406 13.867188 C 13.285156 13.886719 13.84375 13.382812 14.484375 12.761719 C 16.816406 10.5 17.144531 6.320312 20.136719 5.730469 C 20.136719 5.730469 19.023438 4.058594 16.816406 2.886719 Z M 10.300781 5.652344 L 11 5.652344 C 11.28125 5.652344 11.507812 5.878906 11.507812 6.160156 L 11.507812 7.84375 C 11.507812 8.125 11.28125 8.351562 11 8.351562 L 10.300781 8.351562 C 10.019531 8.351562 9.792969 8.125 9.792969 7.84375 L 9.792969 6.160156 C 9.792969 5.878906 10.019531 5.652344 10.300781 5.652344 Z M 10.488281 6.113281 L 10.8125 6.113281 C 10.878906 6.113281 10.929688 6.167969 10.929688 6.230469 L 10.929688 7.773438 C 10.929688 7.835938 10.878906 7.890625 10.8125 7.890625 L 10.488281 7.890625 C 10.421875 7.890625 10.371094 7.835938 10.371094 7.773438 L 10.371094 6.230469 C 10.371094 6.167969 10.421875 6.113281 10.488281 6.113281 Z M 12.511719 5.652344 C 12.230469 5.652344 12.003906 5.878906 12.003906 6.160156 L 12.003906 8.351562 L 12.578125 8.351562 L 12.578125 7.269531 L 13.140625 7.269531 L 13.140625 8.351562 L 13.71875 8.351562 L 13.71875 6.160156 C 13.71875 5.878906 13.492188 5.652344 13.210938 5.652344 Z M 12.699219 6.113281 L 13.023438 6.113281 C 13.089844 6.113281 13.140625 6.167969 13.140625 6.234375 L 13.140625 6.804688 L 12.578125 6.804688 L 12.578125 6.234375 C 12.578125 6.167969 12.632812 6.113281 12.699219 6.113281 Z M 14.722656 5.652344 C 14.441406 5.652344 14.214844 5.878906 14.214844 6.160156 L 14.214844 8.351562 L 14.789062 8.351562 L 14.789062 7.269531 L 15.351562 7.269531 L 15.351562 8.351562 L 15.929688 8.351562 L 15.929688 6.160156 C 15.929688 5.878906 15.703125 5.652344 15.421875 5.652344 Z M 14.910156 6.113281 L 15.234375 6.113281 C 15.300781 6.113281 15.351562 6.167969 15.351562 6.234375 L 15.351562 6.804688 L 14.789062 6.804688 L 14.789062 6.234375 C 14.789062 6.167969 14.84375 6.113281 14.910156 6.113281 Z M 7.578125 5.652344 L 7.578125 8.351562 L 8.15625 8.351562 L 8.15625 6.234375 C 8.15625 6.167969 8.210938 6.113281 8.273438 6.113281 L 8.601562 6.113281 C 8.667969 6.113281 8.71875 6.167969 8.71875 6.234375 L 8.71875 8.351562 L 9.296875 8.351562 L 9.296875 6.160156 C 9.296875 5.878906 9.070312 5.652344 8.789062 5.652344 Z M 7.578125 5.652344 "/>
<path style=" stroke:none;fill-rule:nonzero;fill:rgb(14.901961%,24.705882%,47.058824%);fill-opacity:1;" d="M 1.800781 15.566406 L 0.769531 15.886719 L 0.722656 15.734375 L 1.320312 15.019531 C 1.332031 15.003906 1.34375 14.992188 1.355469 14.976562 C 1.367188 14.964844 1.378906 14.953125 1.390625 14.945312 L 0.554688 15.207031 L 0.515625 15.074219 L 1.542969 14.75 L 1.589844 14.902344 L 0.988281 15.632812 C 0.976562 15.644531 0.96875 15.652344 0.957031 15.664062 C 0.945312 15.675781 0.933594 15.683594 0.921875 15.695312 L 1.757812 15.433594 Z M 1.011719 14.433594 L 0.941406 14.105469 L 0.511719 14.367188 Z M 1.515625 14.644531 L 0.375 14.476562 L 0.34375 14.320312 L 1.316406 13.703125 L 1.347656 13.859375 L 1.054688 14.035156 L 1.144531 14.453125 L 1.484375 14.496094 Z M 1.273438 13.355469 L 0.332031 13.472656 L 0.375 13.8125 L 0.246094 13.828125 L 0.140625 13.003906 L 0.273438 12.988281 L 0.316406 13.328125 L 1.253906 13.210938 Z M 1.210938 12.738281 L 0.132812 12.808594 L 0.125 12.664062 L 1.199219 12.589844 Z M 0.640625 12.25 C 0.777344 12.25 0.886719 12.21875 0.964844 12.152344 C 1.042969 12.089844 1.082031 12 1.082031 11.890625 C 1.082031 11.777344 1.042969 11.6875 0.96875 11.625 C 0.890625 11.5625 0.78125 11.53125 0.644531 11.53125 C 0.503906 11.527344 0.394531 11.558594 0.320312 11.625 C 0.242188 11.6875 0.203125 11.773438 0.199219 11.886719 C 0.199219 12 0.238281 12.085938 0.316406 12.152344 C 0.394531 12.214844 0.503906 12.246094 0.640625 12.25 Z M 0.640625 12.398438 C 0.460938 12.398438 0.324219 12.351562 0.222656 12.261719 C 0.121094 12.171875 0.0742188 12.046875 0.0742188 11.886719 C 0.0742188 11.726562 0.125 11.601562 0.226562 11.511719 C 0.324219 11.421875 0.464844 11.378906 0.644531 11.378906 C 0.820312 11.378906 0.960938 11.425781 1.0625 11.515625 C 1.160156 11.605469 1.210938 11.730469 1.210938 11.890625 C 1.210938 12.050781 1.160156 12.175781 1.058594 12.265625 C 0.957031 12.355469 0.820312 12.398438 0.640625 12.398438 Z M 1.195312 11.195312 L 0.125 11.082031 L 0.140625 10.921875 L 0.972656 10.503906 C 0.992188 10.492188 1.007812 10.484375 1.023438 10.480469 C 1.039062 10.472656 1.054688 10.46875 1.066406 10.464844 L 0.199219 10.371094 L 0.214844 10.234375 L 1.285156 10.347656 L 1.269531 10.503906 L 0.425781 10.933594 C 0.410156 10.941406 0.398438 10.945312 0.382812 10.949219 C 0.371094 10.957031 0.355469 10.960938 0.339844 10.964844 L 1.210938 11.058594 Z M 0.921875 9.84375 L 0.988281 9.511719 L 0.488281 9.582031 Z M 1.300781 10.238281 L 0.320312 9.628906 L 0.355469 9.472656 L 1.492188 9.292969 L 1.460938 9.449219 L 1.121094 9.496094 L 1.039062 9.914062 L 1.332031 10.089844 Z M 1.527344 9.1875 L 0.488281 8.886719 L 0.53125 8.742188 L 1.4375 9.007812 L 1.585938 8.488281 L 1.714844 8.527344 Z M 1.441406 7.71875 C 1.566406 7.773438 1.679688 7.785156 1.777344 7.757812 C 1.871094 7.730469 1.945312 7.667969 1.988281 7.5625 C 2.035156 7.460938 2.03125 7.363281 1.988281 7.273438 C 1.941406 7.1875 1.855469 7.113281 1.726562 7.058594 C 1.601562 7.003906 1.488281 6.988281 1.390625 7.015625 C 1.296875 7.042969 1.226562 7.109375 1.179688 7.210938 C 1.136719 7.316406 1.136719 7.410156 1.179688 7.5 C 1.226562 7.589844 1.3125 7.664062 1.441406 7.71875 Z M 1.378906 7.855469 C 1.214844 7.785156 1.105469 7.6875 1.050781 7.566406 C 0.996094 7.441406 1 7.308594 1.0625 7.160156 C 1.125 7.015625 1.222656 6.917969 1.351562 6.875 C 1.476562 6.832031 1.625 6.847656 1.789062 6.917969 C 1.953125 6.992188 2.0625 7.085938 2.117188 7.210938 C 2.171875 7.332031 2.167969 7.46875 2.105469 7.613281 C 2.042969 7.761719 1.945312 7.855469 1.816406 7.898438 C 1.6875 7.941406 1.542969 7.929688 1.378906 7.855469 Z M 2.390625 6.117188 L 2.460938 5.992188 C 2.570312 6.0625 2.640625 6.152344 2.667969 6.265625 C 2.695312 6.375 2.675781 6.488281 2.609375 6.601562 C 2.535156 6.734375 2.433594 6.8125 2.300781 6.835938 C 2.167969 6.859375 2.023438 6.828125 1.863281 6.738281 C 1.714844 6.65625 1.621094 6.550781 1.578125 6.421875 C 1.535156 6.292969 1.554688 6.164062 1.628906 6.03125 C 1.6875 5.925781 1.765625 5.851562 1.859375 5.816406 C 1.953125 5.777344 2.046875 5.78125 2.148438 5.824219 L 2.078125 5.949219 C 2.007812 5.925781 1.945312 5.929688 1.886719 5.953125 C 1.828125 5.980469 1.777344 6.027344 1.738281 6.101562 C 1.683594 6.195312 1.675781 6.289062 1.714844 6.378906 C 1.75 6.46875 1.832031 6.546875 1.953125 6.617188 C 2.066406 6.679688 2.175781 6.707031 2.273438 6.691406 C 2.375 6.675781 2.449219 6.621094 2.5 6.53125 C 2.542969 6.453125 2.554688 6.378906 2.535156 6.300781 C 2.515625 6.226562 2.46875 6.164062 2.390625 6.117188 Z M 2.90625 6.046875 L 2.019531 5.429688 L 2.460938 4.796875 L 2.570312 4.875 L 2.214844 5.386719 L 2.476562 5.570312 L 2.808594 5.097656 L 2.910156 5.167969 L 2.582031 5.644531 L 2.878906 5.847656 L 3.242188 5.328125 L 3.351562 5.402344 Z M 3.242188 4.828125 L 3.457031 4.570312 L 2.984375 4.394531 Z M 3.386719 5.355469 L 2.8125 4.359375 L 2.917969 4.234375 L 4.003906 4.617188 L 3.902344 4.738281 L 3.582031 4.617188 L 3.308594 4.945312 L 3.480469 5.238281 Z M 4.078125 4.535156 L 3.320312 3.769531 L 3.433594 3.65625 L 4.34375 3.859375 C 4.363281 3.863281 4.382812 3.867188 4.398438 3.871094 C 4.414062 3.878906 4.429688 3.882812 4.441406 3.886719 L 3.824219 3.269531 L 3.925781 3.167969 L 4.683594 3.933594 L 4.570312 4.046875 L 3.648438 3.847656 C 3.632812 3.84375 3.617188 3.839844 3.605469 3.835938 C 3.589844 3.828125 3.574219 3.824219 3.5625 3.816406 L 4.179688 4.4375 Z M 4.863281 3.785156 L 4.15625 2.96875 L 4.265625 2.875 L 4.972656 3.6875 Z M 5.511719 2.753906 L 5.625 2.667969 C 5.699219 2.777344 5.726562 2.890625 5.707031 3 C 5.6875 3.113281 5.625 3.210938 5.519531 3.289062 C 5.398438 3.382812 5.273438 3.410156 5.140625 3.382812 C 5.011719 3.351562 4.890625 3.261719 4.777344 3.117188 C 4.675781 2.980469 4.632812 2.847656 4.644531 2.714844 C 4.65625 2.578125 4.722656 2.464844 4.84375 2.375 C 4.941406 2.300781 5.042969 2.265625 5.140625 2.269531 C 5.242188 2.269531 5.328125 2.3125 5.40625 2.390625 L 5.289062 2.480469 C 5.234375 2.429688 5.175781 2.40625 5.113281 2.40625 C 5.050781 2.40625 4.984375 2.433594 4.917969 2.480469 C 4.832031 2.546875 4.789062 2.628906 4.785156 2.726562 C 4.785156 2.824219 4.824219 2.929688 4.910156 3.039062 C 4.988281 3.144531 5.078125 3.210938 5.175781 3.234375 C 5.273438 3.261719 5.363281 3.242188 5.445312 3.179688 C 5.515625 3.128906 5.558594 3.0625 5.570312 2.984375 C 5.582031 2.90625 5.5625 2.828125 5.511719 2.753906 Z M 6.304688 2.191406 L 6.59375 2.023438 L 6.214844 1.691406 Z M 6.253906 2.734375 L 6.066406 1.597656 L 6.207031 1.515625 L 7.09375 2.257812 L 6.953125 2.335938 L 6.695312 2.113281 L 6.324219 2.320312 L 6.386719 2.660156 Z M 7.191406 2.210938 L 6.75 1.226562 L 6.894531 1.160156 L 7.675781 1.667969 C 7.691406 1.679688 7.707031 1.6875 7.722656 1.699219 C 7.738281 1.710938 7.75 1.71875 7.757812 1.730469 L 7.398438 0.933594 L 7.527344 0.875 L 7.96875 1.859375 L 7.824219 1.925781 L 7.027344 1.410156 C 7.015625 1.402344 7.003906 1.394531 6.992188 1.382812 C 6.980469 1.375 6.96875 1.367188 6.960938 1.355469 L 7.316406 2.152344 Z M 8.257812 0.742188 L 8.019531 0.824219 L 8.28125 1.605469 L 8.519531 1.523438 C 8.621094 1.488281 8.6875 1.429688 8.71875 1.347656 C 8.75 1.261719 8.742188 1.15625 8.699219 1.023438 C 8.65625 0.902344 8.597656 0.8125 8.523438 0.765625 C 8.445312 0.71875 8.359375 0.710938 8.257812 0.742188 Z M 8.183594 1.777344 L 7.839844 0.753906 L 8.230469 0.621094 C 8.375 0.574219 8.496094 0.578125 8.601562 0.640625 C 8.707031 0.699219 8.785156 0.808594 8.839844 0.96875 C 8.894531 1.136719 8.898438 1.277344 8.851562 1.398438 C 8.804688 1.515625 8.707031 1.601562 8.566406 1.648438 Z M 9.695312 0.875 L 10.027344 0.8125 L 9.769531 0.375 Z M 9.472656 1.375 L 9.664062 0.238281 L 9.820312 0.207031 L 10.421875 1.191406 L 10.265625 1.222656 L 10.09375 0.925781 L 9.675781 1.007812 L 9.625 1.347656 Z M 10.769531 1.15625 L 10.667969 0.214844 L 10.328125 0.25 L 10.3125 0.121094 L 11.136719 0.03125 L 11.152344 0.160156 L 10.8125 0.199219 L 10.914062 1.140625 Z M 11.507812 0.171875 L 11.519531 1.089844 L 11.382812 1.089844 L 11.371094 0.0117188 L 11.582031 0.0078125 L 11.859375 0.832031 C 11.867188 0.855469 11.871094 0.875 11.875 0.886719 C 11.878906 0.898438 11.882812 0.910156 11.886719 0.921875 C 11.886719 0.902344 11.890625 0.886719 11.894531 0.871094 C 11.898438 0.859375 11.902344 0.84375 11.90625 0.832031 L 12.175781 0.00390625 L 12.386719 0 L 12.398438 1.078125 L 12.257812 1.082031 L 12.246094 0.160156 C 12.242188 0.175781 12.238281 0.191406 12.234375 0.207031 C 12.230469 0.226562 12.226562 0.242188 12.21875 0.257812 L 11.953125 1.085938 L 11.8125 1.085938 L 11.535156 0.265625 C 11.527344 0.25 11.523438 0.234375 11.519531 0.21875 C 11.515625 0.203125 11.511719 0.1875 11.507812 0.171875 Z M 12.789062 0.566406 C 12.773438 0.703125 12.792969 0.8125 12.851562 0.898438 C 12.90625 0.980469 12.992188 1.027344 13.101562 1.039062 C 13.214844 1.050781 13.304688 1.019531 13.375 0.949219 C 13.445312 0.878906 13.488281 0.773438 13.503906 0.636719 C 13.515625 0.496094 13.496094 0.386719 13.441406 0.304688 C 13.382812 0.21875 13.300781 0.171875 13.1875 0.160156 C 13.078125 0.152344 12.984375 0.179688 12.914062 0.25 C 12.84375 0.324219 12.800781 0.425781 12.789062 0.566406 Z M 12.636719 0.550781 C 12.652344 0.375 12.710938 0.238281 12.8125 0.148438 C 12.914062 0.0585938 13.042969 0.0195312 13.203125 0.0351562 C 13.359375 0.0507812 13.480469 0.113281 13.558594 0.222656 C 13.640625 0.328125 13.671875 0.472656 13.652344 0.652344 C 13.636719 0.828125 13.578125 0.960938 13.476562 1.054688 C 13.378906 1.144531 13.25 1.183594 13.089844 1.167969 C 12.929688 1.152344 12.8125 1.089844 12.730469 0.980469 C 12.648438 0.871094 12.617188 0.726562 12.636719 0.550781 Z M 13.804688 0.863281 L 13.941406 0.890625 C 13.929688 0.96875 13.941406 1.03125 13.984375 1.089844 C 14.023438 1.144531 14.085938 1.179688 14.167969 1.195312 C 14.25 1.210938 14.316406 1.207031 14.371094 1.183594 C 14.425781 1.15625 14.460938 1.117188 14.472656 1.054688 C 14.488281 0.976562 14.410156 0.894531 14.242188 0.820312 C 14.230469 0.8125 14.222656 0.8125 14.21875 0.808594 C 14.082031 0.746094 13.992188 0.6875 13.957031 0.636719 C 13.917969 0.585938 13.90625 0.523438 13.921875 0.445312 C 13.941406 0.351562 13.992188 0.28125 14.070312 0.238281 C 14.152344 0.195312 14.25 0.183594 14.363281 0.207031 C 14.480469 0.230469 14.566406 0.277344 14.621094 0.351562 C 14.675781 0.425781 14.695312 0.515625 14.675781 0.621094 L 14.535156 0.59375 C 14.546875 0.523438 14.53125 0.460938 14.496094 0.417969 C 14.460938 0.371094 14.40625 0.339844 14.332031 0.324219 C 14.261719 0.308594 14.199219 0.3125 14.152344 0.335938 C 14.105469 0.359375 14.074219 0.394531 14.066406 0.449219 C 14.046875 0.527344 14.125 0.609375 14.289062 0.683594 C 14.3125 0.695312 14.332031 0.703125 14.347656 0.707031 C 14.347656 0.710938 14.355469 0.710938 14.359375 0.714844 C 14.46875 0.765625 14.539062 0.808594 14.570312 0.847656 C 14.59375 0.878906 14.609375 0.910156 14.617188 0.949219 C 14.625 0.988281 14.625 1.027344 14.617188 1.066406 C 14.597656 1.171875 14.542969 1.246094 14.460938 1.289062 C 14.375 1.335938 14.269531 1.347656 14.144531 1.320312 C 14.015625 1.296875 13.921875 1.242188 13.863281 1.164062 C 13.804688 1.085938 13.785156 0.984375 13.804688 0.863281 Z M 15.039062 0.898438 L 15.273438 0.96875 C 15.355469 0.992188 15.417969 0.996094 15.457031 0.980469 C 15.5 0.964844 15.527344 0.921875 15.546875 0.859375 C 15.566406 0.796875 15.5625 0.75 15.535156 0.714844 C 15.511719 0.675781 15.460938 0.648438 15.386719 0.625 L 15.140625 0.554688 Z M 14.734375 1.421875 L 15.039062 0.386719 L 15.417969 0.496094 C 15.480469 0.515625 15.527344 0.53125 15.558594 0.546875 C 15.585938 0.5625 15.613281 0.582031 15.632812 0.601562 C 15.667969 0.636719 15.691406 0.683594 15.703125 0.734375 C 15.710938 0.785156 15.707031 0.839844 15.6875 0.902344 C 15.671875 0.960938 15.644531 1.007812 15.609375 1.042969 C 15.574219 1.082031 15.53125 1.105469 15.480469 1.121094 C 15.453125 1.128906 15.417969 1.128906 15.382812 1.128906 C 15.347656 1.125 15.292969 1.109375 15.214844 1.089844 L 15.003906 1.023438 L 14.875 1.460938 Z M 15.640625 1.695312 L 16.039062 0.691406 L 16.175781 0.746094 L 16.011719 1.160156 L 16.53125 1.367188 L 16.695312 0.953125 L 16.832031 1.007812 L 16.433594 2.011719 L 16.296875 1.957031 L 16.484375 1.488281 L 15.964844 1.28125 L 15.777344 1.75 Z M 16.640625 2.109375 L 17.136719 1.148438 L 17.820312 1.5 L 17.757812 1.621094 L 17.203125 1.335938 L 17.054688 1.621094 L 17.566406 1.886719 L 17.511719 1.996094 L 16.996094 1.734375 L 16.832031 2.054688 L 17.398438 2.347656 L 17.335938 2.46875 Z M 18.121094 1.828125 L 17.925781 2.136719 L 18.136719 2.269531 C 18.214844 2.320312 18.273438 2.339844 18.324219 2.335938 C 18.371094 2.332031 18.410156 2.300781 18.449219 2.242188 C 18.484375 2.1875 18.492188 2.140625 18.476562 2.101562 C 18.460938 2.058594 18.414062 2.011719 18.332031 1.960938 Z M 18.066406 1.644531 L 18.421875 1.867188 C 18.476562 1.90625 18.519531 1.933594 18.542969 1.957031 C 18.566406 1.976562 18.585938 2 18.601562 2.027344 C 18.625 2.070312 18.636719 2.121094 18.632812 2.171875 C 18.628906 2.21875 18.609375 2.269531 18.578125 2.320312 C 18.546875 2.371094 18.507812 2.40625 18.464844 2.425781 C 18.421875 2.449219 18.375 2.457031 18.320312 2.449219 C 18.351562 2.484375 18.363281 2.515625 18.363281 2.546875 C 18.363281 2.582031 18.347656 2.628906 18.316406 2.683594 L 18.230469 2.84375 C 18.214844 2.875 18.203125 2.902344 18.199219 2.921875 C 18.195312 2.941406 18.199219 2.960938 18.207031 2.976562 L 18.191406 3 L 18.046875 2.910156 C 18.046875 2.882812 18.066406 2.835938 18.101562 2.773438 C 18.101562 2.769531 18.101562 2.769531 18.101562 2.769531 L 18.171875 2.644531 C 18.207031 2.582031 18.21875 2.535156 18.207031 2.5 C 18.195312 2.46875 18.148438 2.425781 18.058594 2.371094 L 17.859375 2.242188 L 17.613281 2.632812 L 17.488281 2.554688 Z M 18.324219 3.105469 L 18.960938 2.230469 L 19.078125 2.320312 L 18.441406 3.191406 Z M 19.472656 3.503906 L 19.582031 3.59375 C 19.492188 3.691406 19.394531 3.742188 19.277344 3.75 C 19.164062 3.757812 19.058594 3.71875 18.957031 3.632812 C 18.839844 3.535156 18.78125 3.417969 18.78125 3.285156 C 18.78125 3.148438 18.839844 3.011719 18.957031 2.871094 C 19.066406 2.742188 19.1875 2.667969 19.320312 2.648438 C 19.453125 2.632812 19.578125 2.671875 19.695312 2.769531 C 19.789062 2.847656 19.847656 2.9375 19.867188 3.035156 C 19.886719 3.132812 19.863281 3.226562 19.804688 3.320312 L 19.695312 3.226562 C 19.730469 3.164062 19.738281 3.101562 19.722656 3.039062 C 19.710938 2.976562 19.671875 2.917969 19.609375 2.867188 C 19.523438 2.796875 19.433594 2.769531 19.339844 2.789062 C 19.242188 2.8125 19.152344 2.875 19.0625 2.980469 C 18.976562 3.082031 18.933594 3.183594 18.929688 3.285156 C 18.925781 3.386719 18.964844 3.472656 19.046875 3.539062 C 19.113281 3.59375 19.1875 3.621094 19.265625 3.613281 C 19.34375 3.605469 19.414062 3.570312 19.472656 3.503906 Z M 20.203125 4.148438 L 20.433594 4.394531 L 20.667969 3.949219 Z M 19.664062 4.222656 L 20.726562 3.785156 L 20.835938 3.902344 L 20.316406 4.929688 L 20.210938 4.816406 L 20.367188 4.511719 L 20.082031 4.199219 L 19.765625 4.332031 Z M 21.386719 4.753906 L 21.234375 4.554688 L 20.582031 5.054688 L 20.734375 5.253906 C 20.800781 5.339844 20.875 5.382812 20.964844 5.386719 C 21.054688 5.386719 21.152344 5.347656 21.261719 5.261719 C 21.367188 5.183594 21.429688 5.097656 21.453125 5.011719 C 21.472656 4.925781 21.453125 4.839844 21.386719 4.753906 Z M 20.386719 5.019531 L 21.242188 4.363281 L 21.492188 4.691406 C 21.585938 4.808594 21.617188 4.929688 21.597656 5.046875 C 21.574219 5.164062 21.496094 5.273438 21.359375 5.378906 C 21.21875 5.484375 21.085938 5.535156 20.960938 5.527344 C 20.832031 5.519531 20.722656 5.457031 20.632812 5.339844 Z M 21.882812 5.503906 L 21.09375 5.980469 L 21.027344 5.867188 L 21.949219 5.304688 L 22.054688 5.484375 L 21.488281 6.140625 C 21.472656 6.160156 21.460938 6.175781 21.453125 6.183594 C 21.441406 6.195312 21.433594 6.203125 21.425781 6.210938 C 21.445312 6.203125 21.460938 6.199219 21.476562 6.195312 C 21.488281 6.191406 21.503906 6.1875 21.515625 6.183594 L 22.367188 5.992188 L 22.472656 6.171875 L 21.550781 6.734375 L 21.480469 6.609375 L 22.265625 6.132812 C 22.25 6.136719 22.234375 6.144531 22.21875 6.148438 C 22.203125 6.152344 22.1875 6.15625 22.171875 6.160156 L 21.320312 6.351562 L 21.25 6.234375 L 21.8125 5.574219 C 21.820312 5.5625 21.832031 5.550781 21.84375 5.539062 C 21.855469 5.527344 21.867188 5.515625 21.882812 5.503906 Z M 21.652344 6.945312 L 22.613281 6.457031 L 22.679688 6.585938 L 21.71875 7.074219 Z M 21.832031 7.285156 L 22.824219 6.859375 L 22.886719 7.007812 L 22.363281 7.78125 C 22.351562 7.796875 22.339844 7.8125 22.328125 7.824219 C 22.320312 7.839844 22.308594 7.851562 22.296875 7.859375 L 23.101562 7.515625 L 23.15625 7.644531 L 22.164062 8.070312 L 22.101562 7.921875 L 22.632812 7.136719 C 22.640625 7.125 22.648438 7.113281 22.660156 7.101562 C 22.667969 7.089844 22.679688 7.082031 22.691406 7.070312 L 21.886719 7.414062 Z M 22.238281 8.289062 L 23.257812 7.9375 L 23.304688 8.074219 L 22.285156 8.429688 Z M 22.695312 8.507812 L 22.734375 8.644531 C 22.660156 8.667969 22.605469 8.710938 22.574219 8.769531 C 22.542969 8.832031 22.539062 8.902344 22.5625 8.984375 C 22.582031 9.066406 22.617188 9.125 22.664062 9.160156 C 22.710938 9.199219 22.765625 9.207031 22.824219 9.191406 C 22.902344 9.167969 22.9375 9.066406 22.929688 8.878906 C 22.929688 8.871094 22.929688 8.859375 22.929688 8.855469 C 22.925781 8.703125 22.9375 8.601562 22.964844 8.542969 C 22.992188 8.488281 23.046875 8.449219 23.121094 8.425781 C 23.214844 8.402344 23.296875 8.414062 23.371094 8.464844 C 23.449219 8.519531 23.5 8.601562 23.53125 8.710938 C 23.5625 8.828125 23.558594 8.925781 23.519531 9.007812 C 23.480469 9.089844 23.40625 9.148438 23.304688 9.175781 L 23.265625 9.042969 C 23.335938 9.019531 23.382812 8.980469 23.40625 8.925781 C 23.429688 8.875 23.433594 8.808594 23.414062 8.734375 C 23.394531 8.667969 23.363281 8.617188 23.320312 8.582031 C 23.28125 8.550781 23.234375 8.539062 23.183594 8.554688 C 23.101562 8.578125 23.066406 8.679688 23.074219 8.863281 C 23.074219 8.890625 23.078125 8.910156 23.078125 8.925781 C 23.078125 8.925781 23.078125 8.933594 23.078125 8.941406 C 23.082031 9.058594 23.074219 9.140625 23.054688 9.1875 C 23.039062 9.222656 23.015625 9.25 22.984375 9.273438 C 22.957031 9.296875 22.917969 9.316406 22.878906 9.328125 C 22.777344 9.355469 22.6875 9.34375 22.609375 9.285156 C 22.53125 9.230469 22.472656 9.144531 22.4375 9.019531 C 22.402344 8.894531 22.410156 8.789062 22.453125 8.699219 C 22.496094 8.609375 22.578125 8.546875 22.695312 8.507812 Z M 22.660156 9.824219 L 23.589844 9.648438 L 23.527344 9.3125 L 23.65625 9.289062 L 23.8125 10.101562 L 23.683594 10.128906 L 23.617188 9.792969 L 22.6875 9.96875 Z M 23.730469 10.480469 L 23.367188 10.515625 L 23.390625 10.765625 C 23.402344 10.855469 23.421875 10.917969 23.453125 10.953125 C 23.488281 10.984375 23.539062 11 23.605469 10.992188 C 23.667969 10.984375 23.714844 10.964844 23.734375 10.925781 C 23.757812 10.890625 23.765625 10.824219 23.753906 10.730469 Z M 23.839844 10.324219 L 23.882812 10.738281 C 23.890625 10.808594 23.894531 10.855469 23.890625 10.890625 C 23.886719 10.921875 23.878906 10.953125 23.871094 10.976562 C 23.851562 11.027344 23.820312 11.0625 23.777344 11.09375 C 23.734375 11.121094 23.683594 11.136719 23.625 11.144531 C 23.566406 11.148438 23.515625 11.140625 23.472656 11.121094 C 23.429688 11.101562 23.394531 11.066406 23.363281 11.019531 C 23.355469 11.0625 23.339844 11.09375 23.316406 11.117188 C 23.289062 11.136719 23.242188 11.152344 23.175781 11.164062 L 23 11.195312 C 22.964844 11.199219 22.9375 11.207031 22.917969 11.21875 C 22.898438 11.226562 22.886719 11.238281 22.882812 11.253906 L 22.851562 11.257812 L 22.835938 11.089844 C 22.855469 11.074219 22.902344 11.058594 22.976562 11.046875 C 22.976562 11.046875 22.980469 11.046875 22.980469 11.046875 L 23.117188 11.023438 C 23.191406 11.011719 23.234375 10.992188 23.253906 10.964844 C 23.273438 10.933594 23.277344 10.871094 23.265625 10.765625 L 23.242188 10.53125 L 22.78125 10.578125 L 22.769531 10.433594 Z M 23.308594 11.613281 L 23.3125 11.949219 L 23.785156 11.773438 Z M 22.855469 11.304688 L 23.941406 11.691406 L 23.941406 11.855469 L 22.867188 12.269531 L 22.867188 12.113281 L 23.1875 11.992188 L 23.183594 11.566406 L 22.859375 11.457031 Z M 22.839844 12.617188 L 23.785156 12.683594 L 23.8125 12.34375 L 23.941406 12.355469 L 23.882812 13.179688 L 23.753906 13.171875 L 23.777344 12.832031 L 22.832031 12.765625 Z M 22.785156 13.238281 L 23.855469 13.375 L 23.835938 13.519531 L 22.765625 13.382812 Z M 23.25 13.828125 C 23.113281 13.800781 23 13.808594 22.910156 13.859375 C 22.824219 13.90625 22.765625 13.984375 22.746094 14.09375 C 22.722656 14.203125 22.742188 14.296875 22.808594 14.375 C 22.871094 14.453125 22.972656 14.503906 23.105469 14.53125 C 23.242188 14.558594 23.355469 14.550781 23.445312 14.503906 C 23.53125 14.457031 23.585938 14.378906 23.609375 14.269531 C 23.632812 14.15625 23.613281 14.0625 23.546875 13.984375 C 23.484375 13.90625 23.382812 13.855469 23.25 13.828125 Z M 23.277344 13.679688 C 23.453125 13.714844 23.582031 13.785156 23.660156 13.894531 C 23.742188 14.003906 23.765625 14.136719 23.734375 14.292969 C 23.703125 14.449219 23.628906 14.5625 23.511719 14.632812 C 23.398438 14.699219 23.253906 14.714844 23.078125 14.679688 C 22.902344 14.644531 22.773438 14.574219 22.695312 14.464844 C 22.613281 14.359375 22.589844 14.226562 22.621094 14.070312 C 22.652344 13.910156 22.726562 13.796875 22.84375 13.730469 C 22.957031 13.660156 23.105469 13.644531 23.277344 13.679688 Z M 22.5 14.753906 L 23.527344 15.074219 L 23.480469 15.226562 L 22.582031 15.476562 C 22.5625 15.480469 22.542969 15.484375 22.527344 15.488281 C 22.511719 15.492188 22.496094 15.492188 22.480469 15.496094 L 23.316406 15.753906 L 23.273438 15.890625 L 22.246094 15.566406 L 22.292969 15.414062 L 23.203125 15.160156 C 23.21875 15.15625 23.230469 15.152344 23.246094 15.152344 C 23.261719 15.148438 23.277344 15.148438 23.292969 15.144531 L 22.457031 14.886719 Z M 22.5 14.753906 "/>
<path style=" stroke:none;fill-rule:nonzero;fill:rgb(14.901961%,24.705882%,47.058824%);fill-opacity:1;" d="M 1.886719 17.441406 L 2.460938 17.097656 L 2.539062 17.226562 L 1.960938 17.566406 C 1.875 17.621094 1.820312 17.675781 1.800781 17.738281 C 1.78125 17.804688 1.796875 17.875 1.84375 17.957031 C 1.894531 18.035156 1.949219 18.082031 2.015625 18.097656 C 2.082031 18.109375 2.15625 18.09375 2.242188 18.042969 L 2.820312 17.699219 L 2.894531 17.824219 L 2.316406 18.167969 C 2.195312 18.242188 2.082031 18.265625 1.980469 18.238281 C 1.878906 18.210938 1.789062 18.136719 1.714844 18.011719 C 1.644531 17.898438 1.625 17.792969 1.65625 17.695312 C 1.683594 17.601562 1.761719 17.515625 1.886719 17.441406 Z M 2.125 18.605469 L 2.261719 18.511719 L 2.34375 18.636719 L 2.210938 18.730469 Z M 2.621094 18.707031 L 2.707031 18.816406 C 2.648438 18.867188 2.613281 18.925781 2.609375 18.996094 C 2.601562 19.0625 2.625 19.128906 2.679688 19.195312 C 2.730469 19.261719 2.785156 19.304688 2.839844 19.320312 C 2.898438 19.335938 2.953125 19.324219 3 19.289062 C 3.0625 19.238281 3.058594 19.128906 2.980469 18.960938 C 2.976562 18.949219 2.972656 18.941406 2.96875 18.9375 C 2.90625 18.800781 2.878906 18.699219 2.882812 18.636719 C 2.886719 18.570312 2.921875 18.515625 2.984375 18.46875 C 3.058594 18.410156 3.140625 18.390625 3.230469 18.410156 C 3.320312 18.429688 3.402344 18.484375 3.472656 18.574219 C 3.546875 18.671875 3.578125 18.761719 3.574219 18.855469 C 3.566406 18.945312 3.523438 19.023438 3.4375 19.089844 L 3.351562 18.980469 C 3.40625 18.933594 3.433594 18.878906 3.4375 18.820312 C 3.441406 18.761719 3.417969 18.703125 3.371094 18.644531 C 3.328125 18.585938 3.28125 18.550781 3.226562 18.535156 C 3.175781 18.523438 3.132812 18.53125 3.089844 18.5625 C 3.023438 18.613281 3.027344 18.722656 3.105469 18.886719 C 3.117188 18.914062 3.125 18.929688 3.132812 18.945312 C 3.132812 18.949219 3.136719 18.953125 3.136719 18.960938 C 3.1875 19.066406 3.210938 19.148438 3.210938 19.195312 C 3.207031 19.234375 3.199219 19.269531 3.179688 19.304688 C 3.160156 19.335938 3.136719 19.367188 3.101562 19.394531 C 3.019531 19.457031 2.929688 19.480469 2.835938 19.457031 C 2.742188 19.4375 2.65625 19.375 2.578125 19.277344 C 2.5 19.171875 2.460938 19.074219 2.46875 18.972656 C 2.476562 18.875 2.527344 18.785156 2.621094 18.707031 Z M 3.015625 19.761719 L 3.136719 19.652344 L 3.238281 19.765625 L 3.113281 19.875 Z M 4.554688 19.980469 L 4.371094 19.808594 L 3.8125 20.414062 L 3.996094 20.585938 C 4.074219 20.65625 4.160156 20.6875 4.246094 20.671875 C 4.335938 20.660156 4.425781 20.601562 4.519531 20.5 C 4.609375 20.40625 4.65625 20.3125 4.664062 20.222656 C 4.667969 20.132812 4.632812 20.050781 4.554688 19.980469 Z M 3.613281 20.410156 L 4.347656 19.617188 L 4.648438 19.898438 C 4.757812 20 4.8125 20.109375 4.8125 20.230469 C 4.808594 20.351562 4.75 20.472656 4.636719 20.597656 C 4.515625 20.726562 4.394531 20.796875 4.265625 20.8125 C 4.140625 20.828125 4.019531 20.785156 3.910156 20.6875 Z M 4.433594 21.148438 L 5.09375 20.292969 L 5.699219 20.765625 L 5.617188 20.871094 L 5.125 20.488281 L 4.929688 20.742188 L 5.382812 21.097656 L 5.304688 21.195312 L 4.851562 20.84375 L 4.628906 21.128906 L 5.132812 21.519531 L 5.050781 21.625 Z M 5.667969 21.339844 L 5.875 21.472656 C 5.949219 21.519531 6.003906 21.539062 6.046875 21.535156 C 6.089844 21.53125 6.132812 21.5 6.167969 21.445312 C 6.203125 21.390625 6.214844 21.34375 6.199219 21.300781 C 6.1875 21.261719 6.148438 21.21875 6.082031 21.175781 L 5.867188 21.035156 Z M 5.226562 21.75 L 5.816406 20.84375 L 6.148438 21.0625 C 6.203125 21.097656 6.242188 21.125 6.265625 21.148438 C 6.292969 21.171875 6.3125 21.199219 6.324219 21.222656 C 6.347656 21.269531 6.359375 21.316406 6.351562 21.367188 C 6.347656 21.421875 6.324219 21.472656 6.292969 21.527344 C 6.257812 21.578125 6.21875 21.613281 6.175781 21.640625 C 6.132812 21.664062 6.082031 21.679688 6.03125 21.675781 C 6 21.675781 5.96875 21.667969 5.933594 21.65625 C 5.902344 21.640625 5.851562 21.613281 5.785156 21.570312 L 5.597656 21.449219 L 5.351562 21.828125 Z M 6.441406 21.972656 L 6.738281 22.132812 L 6.816406 21.632812 Z M 5.953125 22.21875 L 6.820312 21.460938 L 6.960938 21.535156 L 6.804688 22.675781 L 6.664062 22.601562 L 6.714844 22.265625 L 6.34375 22.0625 L 6.085938 22.292969 Z M 7.449219 21.921875 L 7.304688 22.257812 L 7.535156 22.355469 C 7.617188 22.390625 7.683594 22.402344 7.730469 22.390625 C 7.773438 22.378906 7.8125 22.34375 7.839844 22.28125 C 7.863281 22.222656 7.867188 22.171875 7.84375 22.132812 C 7.824219 22.097656 7.769531 22.058594 7.679688 22.019531 Z M 7.371094 21.75 L 7.753906 21.914062 C 7.816406 21.941406 7.859375 21.964844 7.886719 21.980469 C 7.914062 22 7.9375 22.019531 7.953125 22.042969 C 7.988281 22.082031 8.003906 22.128906 8.007812 22.179688 C 8.011719 22.230469 8.003906 22.28125 7.980469 22.335938 C 7.957031 22.390625 7.925781 22.429688 7.886719 22.460938 C 7.847656 22.488281 7.800781 22.503906 7.746094 22.503906 C 7.777344 22.53125 7.796875 22.5625 7.804688 22.59375 C 7.808594 22.628906 7.800781 22.675781 7.777344 22.738281 L 7.71875 22.90625 C 7.707031 22.941406 7.699219 22.96875 7.699219 22.988281 C 7.699219 23.011719 7.703125 23.027344 7.714844 23.039062 L 7.703125 23.066406 L 7.546875 23 C 7.542969 22.976562 7.554688 22.925781 7.578125 22.855469 C 7.578125 22.855469 7.578125 22.855469 7.578125 22.851562 L 7.628906 22.71875 C 7.652344 22.652344 7.65625 22.601562 7.640625 22.574219 C 7.625 22.542969 7.570312 22.507812 7.476562 22.464844 L 7.257812 22.371094 L 7.074219 22.796875 L 6.941406 22.738281 Z M 8.121094 23.214844 L 8.425781 22.316406 L 8.105469 22.207031 L 8.144531 22.082031 L 8.929688 22.347656 L 8.890625 22.472656 L 8.566406 22.363281 L 8.261719 23.261719 Z M 9.089844 22.558594 L 8.878906 23.453125 L 8.746094 23.421875 L 8.996094 22.371094 L 9.203125 22.421875 L 9.269531 23.285156 C 9.273438 23.308594 9.273438 23.328125 9.273438 23.34375 C 9.273438 23.355469 9.273438 23.367188 9.273438 23.378906 C 9.28125 23.359375 9.289062 23.347656 9.296875 23.332031 C 9.304688 23.320312 9.3125 23.308594 9.316406 23.296875 L 9.777344 22.558594 L 9.984375 22.605469 L 9.734375 23.65625 L 9.59375 23.625 L 9.808594 22.730469 C 9.800781 22.742188 9.792969 22.757812 9.785156 22.773438 C 9.777344 22.785156 9.769531 22.800781 9.761719 22.816406 L 9.300781 23.554688 L 9.164062 23.519531 L 9.09375 22.65625 C 9.089844 22.640625 9.089844 22.625 9.089844 22.609375 C 9.089844 22.59375 9.089844 22.578125 9.089844 22.558594 Z M 10 23.699219 L 10.148438 22.632812 L 10.910156 22.738281 L 10.894531 22.871094 L 10.273438 22.785156 L 10.230469 23.101562 L 10.800781 23.183594 L 10.785156 23.308594 L 10.214844 23.226562 L 10.164062 23.585938 L 10.792969 23.675781 L 10.773438 23.808594 Z M 10.988281 23.828125 L 11.042969 22.75 L 11.203125 22.757812 L 11.667969 23.566406 C 11.679688 23.585938 11.6875 23.601562 11.695312 23.617188 C 11.703125 23.632812 11.707031 23.648438 11.710938 23.660156 L 11.753906 22.785156 L 11.894531 22.792969 L 11.839844 23.871094 L 11.683594 23.863281 L 11.207031 23.042969 C 11.199219 23.03125 11.195312 23.019531 11.1875 23.003906 C 11.183594 22.992188 11.175781 22.976562 11.171875 22.960938 L 11.128906 23.835938 Z M 12.347656 23.859375 L 12.316406 22.914062 L 11.976562 22.925781 L 11.972656 22.792969 L 12.800781 22.765625 L 12.804688 22.898438 L 12.464844 22.910156 L 12.496094 23.855469 Z M 13.472656 23.242188 C 13.492188 23.378906 13.542969 23.480469 13.617188 23.546875 C 13.691406 23.613281 13.785156 23.636719 13.898438 23.621094 C 14.007812 23.601562 14.089844 23.550781 14.136719 23.464844 C 14.1875 23.375 14.203125 23.265625 14.179688 23.128906 C 14.160156 22.992188 14.109375 22.890625 14.035156 22.820312 C 13.960938 22.753906 13.867188 22.730469 13.757812 22.75 C 13.648438 22.765625 13.566406 22.820312 13.515625 22.90625 C 13.464844 22.992188 13.449219 23.105469 13.472656 23.242188 Z M 13.320312 23.265625 C 13.292969 23.089844 13.316406 22.945312 13.390625 22.832031 C 13.464844 22.71875 13.578125 22.648438 13.738281 22.621094 C 13.894531 22.597656 14.027344 22.628906 14.132812 22.710938 C 14.234375 22.796875 14.304688 22.925781 14.332031 23.105469 C 14.359375 23.28125 14.335938 23.425781 14.261719 23.539062 C 14.191406 23.652344 14.074219 23.71875 13.917969 23.746094 C 13.757812 23.769531 13.625 23.742188 13.519531 23.65625 C 13.417969 23.570312 13.347656 23.441406 13.320312 23.265625 Z M 14.632812 23.582031 L 14.371094 22.535156 L 15.074219 22.359375 L 15.105469 22.488281 L 14.546875 22.632812 L 14.625 22.945312 L 15.113281 22.820312 L 15.148438 22.949219 L 14.65625 23.074219 L 14.777344 23.546875 Z M 16.507812 22.566406 L 16.640625 22.511719 C 16.679688 22.636719 16.675781 22.75 16.628906 22.855469 C 16.578125 22.957031 16.492188 23.03125 16.367188 23.082031 C 16.226562 23.136719 16.097656 23.128906 15.980469 23.066406 C 15.863281 23 15.769531 22.882812 15.703125 22.710938 C 15.640625 22.554688 15.636719 22.410156 15.683594 22.285156 C 15.730469 22.160156 15.828125 22.070312 15.96875 22.015625 C 16.085938 21.972656 16.1875 21.964844 16.285156 21.996094 C 16.378906 22.023438 16.453125 22.089844 16.503906 22.1875 L 16.371094 22.238281 C 16.332031 22.175781 16.28125 22.136719 16.21875 22.121094 C 16.15625 22.101562 16.089844 22.109375 16.011719 22.140625 C 15.910156 22.179688 15.84375 22.246094 15.816406 22.339844 C 15.789062 22.429688 15.800781 22.542969 15.851562 22.671875 C 15.898438 22.796875 15.964844 22.882812 16.050781 22.933594 C 16.140625 22.988281 16.230469 22.992188 16.328125 22.957031 C 16.410156 22.925781 16.46875 22.871094 16.5 22.800781 C 16.535156 22.730469 16.535156 22.648438 16.507812 22.566406 Z M 16.828125 22.273438 C 16.890625 22.394531 16.96875 22.476562 17.058594 22.519531 C 17.152344 22.558594 17.25 22.554688 17.347656 22.503906 C 17.449219 22.453125 17.511719 22.378906 17.53125 22.28125 C 17.554688 22.183594 17.53125 22.070312 17.46875 21.949219 C 17.40625 21.824219 17.332031 21.742188 17.238281 21.699219 C 17.148438 21.660156 17.050781 21.664062 16.953125 21.714844 C 16.851562 21.765625 16.789062 21.839844 16.769531 21.9375 C 16.746094 22.035156 16.765625 22.148438 16.828125 22.273438 Z M 16.691406 22.339844 C 16.613281 22.179688 16.589844 22.035156 16.625 21.90625 C 16.660156 21.773438 16.75 21.675781 16.894531 21.601562 C 17.035156 21.53125 17.171875 21.519531 17.296875 21.566406 C 17.421875 21.617188 17.523438 21.71875 17.605469 21.878906 C 17.6875 22.039062 17.707031 22.183594 17.671875 22.3125 C 17.636719 22.445312 17.550781 22.542969 17.40625 22.617188 C 17.265625 22.6875 17.128906 22.699219 17.003906 22.652344 C 16.875 22.601562 16.773438 22.5 16.691406 22.339844 Z M 17.660156 21.402344 L 18.15625 22.175781 L 18.042969 22.246094 L 17.460938 21.339844 L 17.636719 21.226562 L 18.308594 21.777344 C 18.328125 21.792969 18.339844 21.804688 18.351562 21.8125 C 18.363281 21.820312 18.371094 21.832031 18.378906 21.835938 C 18.371094 21.820312 18.367188 21.804688 18.359375 21.789062 C 18.355469 21.777344 18.351562 21.761719 18.351562 21.75 L 18.136719 20.90625 L 18.3125 20.792969 L 18.898438 21.699219 L 18.777344 21.777344 L 18.28125 21.003906 C 18.285156 21.019531 18.289062 21.035156 18.296875 21.050781 C 18.300781 21.066406 18.304688 21.082031 18.308594 21.097656 L 18.523438 21.941406 L 18.40625 22.015625 L 17.730469 21.46875 C 17.71875 21.460938 17.707031 21.449219 17.695312 21.4375 C 17.683594 21.425781 17.671875 21.414062 17.660156 21.402344 Z M 18.644531 20.738281 L 19.222656 21.457031 L 19.117188 21.539062 L 18.4375 20.699219 L 18.601562 20.570312 L 19.328125 21.042969 C 19.351562 21.058594 19.367188 21.066406 19.375 21.074219 C 19.386719 21.082031 19.398438 21.089844 19.40625 21.097656 C 19.394531 21.078125 19.390625 21.066406 19.382812 21.050781 C 19.378906 21.039062 19.371094 21.023438 19.367188 21.011719 L 19.066406 20.195312 L 19.226562 20.0625 L 19.90625 20.902344 L 19.796875 20.992188 L 19.21875 20.277344 C 19.226562 20.292969 19.230469 20.304688 19.238281 20.320312 C 19.246094 20.335938 19.25 20.351562 19.257812 20.367188 L 19.558594 21.183594 L 19.453125 21.269531 L 18.722656 20.796875 C 18.710938 20.789062 18.699219 20.78125 18.683594 20.773438 C 18.671875 20.761719 18.660156 20.753906 18.644531 20.738281 Z M 20.105469 20.71875 L 19.351562 19.945312 L 19.898438 19.410156 L 19.992188 19.503906 L 19.546875 19.941406 L 19.773438 20.171875 L 20.183594 19.769531 L 20.273438 19.859375 L 19.859375 20.261719 L 20.113281 20.519531 L 20.570312 20.074219 L 20.664062 20.171875 Z M 20.183594 19.28125 L 20.460938 19.519531 L 20.625 19.332031 C 20.683594 19.261719 20.714844 19.207031 20.714844 19.15625 C 20.71875 19.109375 20.691406 19.0625 20.640625 19.019531 C 20.59375 18.976562 20.546875 18.960938 20.503906 18.972656 C 20.460938 18.980469 20.410156 19.019531 20.347656 19.09375 Z M 19.992188 19.308594 L 20.265625 18.992188 C 20.3125 18.941406 20.347656 18.902344 20.371094 18.882812 C 20.398438 18.863281 20.421875 18.847656 20.449219 18.835938 C 20.5 18.820312 20.546875 18.816406 20.597656 18.828125 C 20.644531 18.839844 20.691406 18.863281 20.738281 18.902344 C 20.78125 18.941406 20.8125 18.984375 20.828125 19.027344 C 20.84375 19.074219 20.84375 19.125 20.828125 19.175781 C 20.863281 19.152344 20.898438 19.140625 20.929688 19.148438 C 20.964844 19.152344 21.007812 19.175781 21.058594 19.214844 L 21.203125 19.320312 C 21.234375 19.34375 21.257812 19.359375 21.277344 19.367188 C 21.296875 19.371094 21.3125 19.371094 21.328125 19.367188 L 21.351562 19.386719 L 21.242188 19.515625 C 21.214844 19.507812 21.171875 19.484375 21.113281 19.441406 C 21.113281 19.441406 21.109375 19.4375 21.109375 19.4375 L 21 19.351562 C 20.941406 19.308594 20.894531 19.289062 20.863281 19.296875 C 20.828125 19.300781 20.777344 19.34375 20.710938 19.421875 L 20.554688 19.601562 L 20.90625 19.902344 L 20.808594 20.011719 Z M 21.59375 18.375 L 21.675781 18.261719 C 21.78125 18.34375 21.839844 18.441406 21.855469 18.554688 C 21.867188 18.667969 21.835938 18.777344 21.761719 18.882812 C 21.671875 19.007812 21.558594 19.074219 21.425781 19.082031 C 21.292969 19.09375 21.148438 19.042969 21 18.9375 C 20.863281 18.839844 20.78125 18.722656 20.753906 18.589844 C 20.726562 18.460938 20.757812 18.332031 20.84375 18.207031 C 20.917969 18.109375 21 18.046875 21.097656 18.019531 C 21.195312 17.992188 21.289062 18.007812 21.386719 18.058594 L 21.300781 18.175781 C 21.234375 18.144531 21.171875 18.140625 21.113281 18.160156 C 21.050781 18.179688 20.996094 18.222656 20.949219 18.289062 C 20.882812 18.378906 20.867188 18.46875 20.894531 18.5625 C 20.921875 18.65625 20.988281 18.742188 21.105469 18.824219 C 21.210938 18.902344 21.316406 18.9375 21.417969 18.933594 C 21.515625 18.929688 21.597656 18.886719 21.660156 18.800781 C 21.710938 18.730469 21.730469 18.65625 21.71875 18.578125 C 21.707031 18.5 21.664062 18.433594 21.59375 18.375 Z M 22.113281 18.3125 L 21.1875 17.761719 L 21.578125 17.101562 L 21.695312 17.171875 L 21.375 17.707031 L 21.652344 17.871094 L 21.945312 17.375 L 22.054688 17.441406 L 21.761719 17.9375 L 22.074219 18.121094 L 22.398438 17.574219 L 22.511719 17.640625 Z M 22.113281 18.3125 "/>
</g>
</svg>
