<?xml version="1.0" encoding="UTF-8"?>
<svg xmlns="http://www.w3.org/2000/svg" xmlns:xlink="http://www.w3.org/1999/xlink" width="24px" height="24px" viewBox="0 0 24 24" version="1.1">
<g id="surface1">
<path style=" stroke:none;fill-rule:evenodd;fill:rgb(100%,100%,100%);fill-opacity:1;" d="M 24 12 C 24 18.628906 18.628906 24 12 24 C 5.371094 24 0 18.628906 0 12 C 0 5.371094 5.371094 0 12 0 C 18.628906 0 24 5.371094 24 12 Z M 24 12 "/>
<path style="fill-rule:nonzero;fill:rgb(100%,0%,0%);fill-opacity:1;stroke-width:0.00007615;stroke-linecap:butt;stroke-linejoin:miter;stroke:rgb(100%,0%,0%);stroke-opacity:1;stroke-miterlimit:10.433;" d="M 0.31543 0.843099 L 0.289062 0.882812 L 0.262695 0.922689 C 0.256348 0.918294 0.249837 0.914062 0.243327 0.909831 C 0.249023 0.889974 0.25472 0.87028 0.260417 0.850423 C 0.255534 0.859049 0.251302 0.866536 0.247559 0.872721 C 0.243978 0.878906 0.240723 0.884115 0.237956 0.888346 C 0.235189 0.892415 0.232422 0.896647 0.229655 0.900716 C 0.224284 0.897135 0.21875 0.893392 0.213053 0.889648 C 0.230632 0.863281 0.24821 0.836751 0.265788 0.810221 C 0.272135 0.814453 0.278646 0.818685 0.285156 0.823079 C 0.279297 0.843424 0.273275 0.863607 0.267253 0.883952 C 0.270833 0.87679 0.27474 0.87028 0.27832 0.86377 C 0.282227 0.857422 0.28597 0.851237 0.289714 0.845378 C 0.292806 0.840983 0.295736 0.836426 0.298665 0.831868 C 0.304199 0.835612 0.309896 0.839355 0.31543 0.843099 Z M 0.31543 0.843099 " transform="matrix(24,0,0,24,0,0)"/>
<path style="fill-rule:nonzero;fill:rgb(100%,0%,0%);fill-opacity:1;stroke-width:0.00007615;stroke-linecap:butt;stroke-linejoin:miter;stroke:rgb(100%,0%,0%);stroke-opacity:1;stroke-miterlimit:10.433;" d="M 0.174479 0.708822 L 0.107747 0.747233 C 0.110677 0.752441 0.11377 0.75765 0.116862 0.762858 C 0.111491 0.765788 0.10612 0.76888 0.100749 0.771973 C 0.0908203 0.755046 0.0810547 0.737956 0.0712891 0.720866 C 0.0764974 0.717936 0.0818685 0.714844 0.0872396 0.711751 C 0.0904948 0.717122 0.0935872 0.722493 0.0966797 0.727865 C 0.118815 0.715169 0.141113 0.702311 0.163249 0.689616 C 0.166992 0.695964 0.170736 0.702474 0.174479 0.708822 Z M 0.174479 0.708822 " transform="matrix(24,0,0,24,0,0)"/>
<path style="fill-rule:nonzero;fill:rgb(100%,0%,0%);fill-opacity:1;stroke-width:0.00007615;stroke-linecap:butt;stroke-linejoin:miter;stroke:rgb(100%,0%,0%);stroke-opacity:1;stroke-miterlimit:10.433;" d="M 0.141602 0.64388 L 0.0965169 0.65918 L 0.0512695 0.674479 C 0.0488281 0.66748 0.0465495 0.660482 0.0441081 0.65332 C 0.0742188 0.643229 0.104329 0.632975 0.13444 0.622721 C 0.136719 0.62972 0.13916 0.636719 0.141602 0.64388 Z M 0.141602 0.64388 " transform="matrix(24,0,0,24,0,0)"/>
<path style="fill-rule:nonzero;fill:rgb(100%,0%,0%);fill-opacity:1;stroke-width:0.00007615;stroke-linecap:butt;stroke-linejoin:miter;stroke:rgb(100%,0%,0%);stroke-opacity:1;stroke-miterlimit:10.433;" d="M 0.115234 0.49235 L 0.0678711 0.487467 L 0.0203451 0.482422 C 0.0211589 0.474772 0.0219727 0.46696 0.0227865 0.45931 C 0.0429688 0.455241 0.063151 0.451172 0.0833333 0.44694 C 0.0734049 0.446777 0.0647786 0.446289 0.0576172 0.445964 C 0.0504557 0.445638 0.0444336 0.44515 0.039388 0.444499 C 0.0345052 0.44401 0.0294596 0.443522 0.0245768 0.443034 C 0.0252279 0.436361 0.0258789 0.42985 0.0266927 0.423177 C 0.0582682 0.426595 0.0898438 0.42985 0.121582 0.433268 C 0.120768 0.440918 0.119954 0.44873 0.119141 0.45638 C 0.0983073 0.460449 0.077474 0.464518 0.0568034 0.468587 C 0.0646159 0.468587 0.0722656 0.468913 0.0799154 0.469076 C 0.0872396 0.469564 0.094401 0.470052 0.1014 0.470703 C 0.106771 0.471354 0.111979 0.471842 0.11735 0.472493 C 0.116699 0.479004 0.116048 0.485677 0.115234 0.49235 Z M 0.115234 0.49235 " transform="matrix(24,0,0,24,0,0)"/>
<path style="fill-rule:nonzero;fill:rgb(100%,0%,0%);fill-opacity:1;stroke-width:0.00007615;stroke-linecap:butt;stroke-linejoin:miter;stroke:rgb(100%,0%,0%);stroke-opacity:1;stroke-miterlimit:10.433;" d="M 0.190918 0.275879 L 0.177734 0.296549 L 0.164388 0.317383 C 0.137695 0.30013 0.11084 0.28304 0.0839844 0.265951 C 0.0880534 0.259603 0.0919596 0.253418 0.0960286 0.24707 C 0.11735 0.260742 0.138835 0.274414 0.160156 0.288086 C 0.165039 0.280599 0.169759 0.273112 0.174642 0.265625 C 0.180013 0.269043 0.185547 0.272298 0.190918 0.275879 Z M 0.190918 0.275879 " transform="matrix(24,0,0,24,0,0)"/>
<path style="fill-rule:nonzero;fill:rgb(100%,0%,0%);fill-opacity:1;stroke-width:0.00007615;stroke-linecap:butt;stroke-linejoin:miter;stroke:rgb(100%,0%,0%);stroke-opacity:1;stroke-miterlimit:10.433;" d="M 0.260742 0.203613 L 0.226074 0.169596 L 0.191243 0.135579 C 0.197266 0.131348 0.203451 0.127116 0.209798 0.122884 C 0.219889 0.134603 0.22998 0.146484 0.240072 0.158366 C 0.24349 0.162272 0.246257 0.165365 0.248372 0.168132 C 0.250651 0.170736 0.252604 0.173014 0.254232 0.175293 C 0.252279 0.171875 0.250488 0.168294 0.248698 0.165202 C 0.246908 0.161947 0.24528 0.158691 0.243815 0.155599 C 0.237142 0.141602 0.230469 0.127441 0.223633 0.113444 C 0.229818 0.109212 0.236003 0.10498 0.242188 0.100749 C 0.252767 0.112142 0.263346 0.123535 0.273926 0.135091 C 0.275228 0.136556 0.277995 0.139811 0.282389 0.144857 C 0.284993 0.147786 0.287109 0.150065 0.288574 0.151855 C 0.285807 0.14681 0.283529 0.142904 0.281901 0.140137 C 0.280273 0.137207 0.278971 0.134766 0.277995 0.132812 C 0.270671 0.118978 0.263346 0.105306 0.255859 0.0913086 C 0.262044 0.0872396 0.268229 0.0830078 0.274414 0.0786133 C 0.287109 0.108398 0.299805 0.138346 0.312663 0.168132 C 0.30599 0.172689 0.299316 0.177246 0.292806 0.181803 C 0.283854 0.171875 0.275065 0.161947 0.266113 0.152018 C 0.263835 0.149414 0.261393 0.14681 0.259115 0.143717 C 0.25651 0.140788 0.254069 0.137695 0.251465 0.13444 C 0.253906 0.138509 0.256022 0.142253 0.25765 0.145345 C 0.25944 0.1486 0.26123 0.151693 0.262695 0.154622 C 0.268717 0.166341 0.27474 0.17806 0.280762 0.189941 C 0.274251 0.194499 0.267415 0.199056 0.260742 0.203613 Z M 0.260742 0.203613 " transform="matrix(24,0,0,24,0,0)"/>
<path style="fill-rule:nonzero;fill:rgb(100%,0%,0%);fill-opacity:1;stroke-width:0.00007615;stroke-linecap:butt;stroke-linejoin:miter;stroke:rgb(100%,0%,0%);stroke-opacity:1;stroke-miterlimit:10.433;" d="M 0.353516 0.149089 L 0.322917 0.0585938 C 0.339355 0.0530599 0.355632 0.047526 0.37207 0.0419922 C 0.374023 0.0478516 0.375977 0.0537109 0.378092 0.0595703 C 0.368652 0.0626628 0.359375 0.065918 0.349935 0.0690104 C 0.351725 0.0745443 0.353516 0.0800781 0.355469 0.085612 C 0.364095 0.0828451 0.372721 0.0797526 0.38151 0.0768229 C 0.383464 0.0828451 0.385579 0.0888672 0.387695 0.0950521 C 0.379069 0.0979818 0.37028 0.100911 0.361654 0.103841 C 0.363932 0.110352 0.366048 0.116862 0.368327 0.123535 C 0.377604 0.120443 0.387044 0.117188 0.396484 0.113932 C 0.3986 0.120117 0.400553 0.126302 0.402669 0.132487 C 0.38623 0.137858 0.369954 0.143555 0.353516 0.149089 Z M 0.353516 0.149089 " transform="matrix(24,0,0,24,0,0)"/>
<path style="fill-rule:nonzero;fill:rgb(100%,0%,0%);fill-opacity:1;stroke-width:0.00007615;stroke-linecap:butt;stroke-linejoin:miter;stroke:rgb(100%,0%,0%);stroke-opacity:1;stroke-miterlimit:10.433;" d="M 0.538574 0.122721 L 0.542806 0.0846354 L 0.547038 0.0463867 C 0.541178 0.0457357 0.535156 0.0450846 0.529297 0.0444336 C 0.529948 0.0382487 0.530599 0.0322266 0.53125 0.0260417 C 0.550781 0.0281576 0.570312 0.0302734 0.590007 0.0323893 C 0.589355 0.0385742 0.588542 0.0447591 0.587891 0.050944 C 0.581706 0.0501302 0.575521 0.0494792 0.569173 0.0488281 C 0.566406 0.0742188 0.563639 0.0997721 0.56071 0.125326 C 0.553385 0.124512 0.545898 0.123535 0.538574 0.122721 Z M 0.538574 0.122721 " transform="matrix(24,0,0,24,0,0)"/>
<path style="fill-rule:nonzero;fill:rgb(100%,0%,0%);fill-opacity:1;stroke-width:0.00007615;stroke-linecap:butt;stroke-linejoin:miter;stroke:rgb(100%,0%,0%);stroke-opacity:1;stroke-miterlimit:10.433;" d="M 0.608236 0.134277 L 0.625651 0.0900065 L 0.643066 0.0455729 C 0.649902 0.0481771 0.656901 0.050944 0.6639 0.0537109 C 0.659505 0.0647786 0.655111 0.0760091 0.650716 0.0872396 C 0.65625 0.0893555 0.661784 0.0914714 0.667318 0.09375 C 0.671712 0.0825195 0.676107 0.0714518 0.680501 0.0602214 C 0.687337 0.0628255 0.69401 0.0654297 0.700846 0.0681966 C 0.68929 0.097819 0.677572 0.127441 0.666016 0.157064 C 0.65918 0.154297 0.652344 0.151693 0.645671 0.149089 C 0.650391 0.136719 0.655273 0.124512 0.660156 0.112142 C 0.65446 0.110026 0.648926 0.10791 0.643392 0.105632 C 0.638672 0.117839 0.633789 0.130208 0.629069 0.142415 C 0.62207 0.139811 0.615072 0.137044 0.608236 0.134277 Z M 0.608236 0.134277 " transform="matrix(24,0,0,24,0,0)"/>
<path style="fill-rule:nonzero;fill:rgb(100%,0%,0%);fill-opacity:1;stroke-width:0.00007615;stroke-linecap:butt;stroke-linejoin:miter;stroke:rgb(100%,0%,0%);stroke-opacity:1;stroke-miterlimit:10.433;" d="M 0.696289 0.173828 L 0.723633 0.134766 L 0.751139 0.0957031 C 0.765299 0.105632 0.77946 0.115397 0.79362 0.125488 C 0.790039 0.130371 0.786458 0.135579 0.782878 0.140625 C 0.774902 0.135091 0.766764 0.129232 0.758626 0.123535 C 0.755208 0.128255 0.751953 0.133138 0.748535 0.137858 C 0.756022 0.143229 0.763509 0.148438 0.770996 0.153646 C 0.767415 0.158854 0.763672 0.164062 0.760091 0.169434 C 0.752604 0.164062 0.745117 0.158854 0.73763 0.153646 C 0.733724 0.15918 0.729655 0.164876 0.725586 0.170736 C 0.733724 0.17627 0.741862 0.181966 0.75 0.187663 C 0.746257 0.193034 0.742513 0.198242 0.73877 0.203613 C 0.724609 0.193685 0.710449 0.183757 0.696289 0.173828 Z M 0.696289 0.173828 " transform="matrix(24,0,0,24,0,0)"/>
<path style="fill-rule:nonzero;fill:rgb(100%,0%,0%);fill-opacity:1;stroke-width:0.00007615;stroke-linecap:butt;stroke-linejoin:miter;stroke:rgb(100%,0%,0%);stroke-opacity:1;stroke-miterlimit:10.433;" d="M 0.88623 0.338053 L 0.892578 0.357422 C 0.891764 0.357747 0.890788 0.35791 0.889974 0.358236 C 0.884928 0.360026 0.881673 0.361654 0.879883 0.363607 C 0.878255 0.365397 0.87793 0.367676 0.878906 0.370443 C 0.879557 0.372884 0.880859 0.374349 0.882812 0.375 C 0.884928 0.375814 0.887207 0.375651 0.889974 0.374837 C 0.894206 0.373372 0.897461 0.368978 0.899577 0.361328 C 0.89974 0.360026 0.900065 0.359049 0.900228 0.358398 C 0.900391 0.358236 0.900391 0.357747 0.900716 0.357259 C 0.903483 0.346842 0.906087 0.340007 0.908366 0.337077 C 0.909993 0.334798 0.912109 0.332845 0.914551 0.331217 C 0.916992 0.329427 0.919922 0.328125 0.923177 0.326986 C 0.931152 0.324382 0.937988 0.324707 0.944173 0.327799 C 0.950195 0.330892 0.954427 0.336589 0.957194 0.344401 C 0.959961 0.35319 0.959961 0.360514 0.957194 0.366699 C 0.954102 0.372884 0.948568 0.377279 0.940104 0.380046 C 0.939779 0.380208 0.93929 0.380371 0.938639 0.380371 C 0.937988 0.380534 0.9375 0.380697 0.937174 0.380859 C 0.935059 0.374512 0.932943 0.368164 0.930827 0.361816 C 0.931152 0.361654 0.931641 0.361491 0.931966 0.361328 C 0.936035 0.360189 0.938802 0.358561 0.94043 0.356608 C 0.942057 0.354655 0.942383 0.352702 0.941732 0.35026 C 0.940918 0.348307 0.939779 0.346842 0.937826 0.346029 C 0.936035 0.345378 0.934082 0.345378 0.931641 0.346191 C 0.927734 0.347493 0.924967 0.352214 0.922852 0.360514 C 0.922363 0.361979 0.922038 0.363281 0.921875 0.364095 C 0.921875 0.364746 0.921549 0.36556 0.921224 0.366862 C 0.918945 0.375651 0.916504 0.381836 0.9139 0.385091 C 0.912435 0.387044 0.910156 0.388672 0.907715 0.390299 C 0.905436 0.391764 0.902669 0.393066 0.899577 0.394206 C 0.890462 0.397135 0.882812 0.396973 0.876302 0.39388 C 0.869792 0.390951 0.865072 0.385091 0.862142 0.376302 C 0.859212 0.367188 0.859212 0.359375 0.862467 0.35319 C 0.86556 0.347168 0.871908 0.342448 0.881185 0.339355 C 0.881673 0.339193 0.882324 0.33903 0.882975 0.338867 C 0.883626 0.338542 0.884766 0.338379 0.88623 0.338053 Z M 0.88623 0.338053 " transform="matrix(24,0,0,24,0,0)"/>
<path style="fill-rule:nonzero;fill:rgb(100%,0%,0%);fill-opacity:1;stroke-width:0.00007615;stroke-linecap:butt;stroke-linejoin:miter;stroke:rgb(100%,0%,0%);stroke-opacity:1;stroke-miterlimit:10.433;" d="M 0.878581 0.436198 L 0.926107 0.430827 L 0.97347 0.425293 C 0.975423 0.442546 0.977376 0.459798 0.979329 0.476888 C 0.973145 0.477539 0.967122 0.478353 0.960938 0.479004 C 0.959798 0.469238 0.958659 0.459473 0.95752 0.449544 C 0.951823 0.450195 0.945964 0.450846 0.940104 0.45166 C 0.941081 0.460612 0.94222 0.469727 0.943359 0.478841 C 0.937012 0.479492 0.930664 0.480143 0.924316 0.480957 C 0.923177 0.471842 0.922201 0.462891 0.921061 0.453613 C 0.914225 0.454427 0.907389 0.455241 0.900391 0.456055 C 0.90153 0.46582 0.902669 0.475749 0.903809 0.485514 C 0.897461 0.486328 0.890951 0.486979 0.88444 0.487793 C 0.88265 0.470703 0.880534 0.453451 0.878581 0.436198 Z M 0.878581 0.436198 " transform="matrix(24,0,0,24,0,0)"/>
<path style="fill-rule:nonzero;fill:rgb(100%,0%,0%);fill-opacity:1;stroke-width:0.00007615;stroke-linecap:butt;stroke-linejoin:miter;stroke:rgb(100%,0%,0%);stroke-opacity:1;stroke-miterlimit:10.433;" d="M 0.864258 0.626302 L 0.91276 0.633138 L 0.9611 0.639974 C 0.958496 0.647298 0.955729 0.654622 0.952799 0.662109 C 0.936361 0.658691 0.919596 0.655436 0.902995 0.652181 C 0.900716 0.651693 0.897949 0.651042 0.894206 0.650228 C 0.890788 0.649414 0.886882 0.648275 0.882812 0.647298 C 0.882975 0.647461 0.883301 0.647624 0.883789 0.647949 C 0.892741 0.652507 0.898438 0.655436 0.901042 0.656901 C 0.915853 0.665365 0.930501 0.673828 0.94515 0.682454 C 0.942383 0.689779 0.939779 0.697103 0.936849 0.70459 C 0.909668 0.686686 0.882487 0.66862 0.855143 0.650716 C 0.858236 0.642578 0.861328 0.63444 0.864258 0.626302 Z M 0.864258 0.626302 " transform="matrix(24,0,0,24,0,0)"/>
<path style="fill-rule:nonzero;fill:rgb(100%,0%,0%);fill-opacity:1;stroke-width:0.00007615;stroke-linecap:butt;stroke-linejoin:miter;stroke:rgb(100%,0%,0%);stroke-opacity:1;stroke-miterlimit:10.433;" d="M 0.832682 0.697266 L 0.874023 0.721191 L 0.915527 0.745117 C 0.911621 0.751465 0.907715 0.757975 0.903646 0.764323 C 0.876139 0.748535 0.84847 0.732585 0.820801 0.716797 C 0.824707 0.710286 0.828613 0.703776 0.832682 0.697266 Z M 0.832682 0.697266 " transform="matrix(24,0,0,24,0,0)"/>
<path style="fill-rule:nonzero;fill:rgb(100%,0%,0%);fill-opacity:1;stroke-width:0.00007615;stroke-linecap:butt;stroke-linejoin:miter;stroke:rgb(100%,0%,0%);stroke-opacity:1;stroke-miterlimit:10.433;" d="M 0.80013 0.803223 L 0.784831 0.818848 C 0.784342 0.818522 0.784017 0.818197 0.783366 0.817708 C 0.782878 0.81722 0.782227 0.816406 0.78125 0.815592 C 0.772949 0.807454 0.768555 0.799642 0.768066 0.792155 C 0.767578 0.784505 0.770833 0.776855 0.77832 0.769206 C 0.782552 0.764811 0.787109 0.761719 0.791667 0.760091 C 0.796224 0.758464 0.800944 0.757975 0.805827 0.758952 C 0.809408 0.759603 0.813151 0.761556 0.817546 0.764648 C 0.82194 0.767578 0.828288 0.773438 0.836589 0.78125 C 0.844727 0.789388 0.850586 0.79541 0.853516 0.799642 C 0.856934 0.804036 0.858887 0.80778 0.859701 0.811361 C 0.860677 0.816081 0.860514 0.820801 0.859049 0.825358 C 0.857422 0.830078 0.854492 0.834473 0.85026 0.838867 C 0.842936 0.846354 0.835449 0.849935 0.827637 0.849447 C 0.819987 0.849284 0.811849 0.845052 0.803548 0.837077 C 0.803385 0.836914 0.80306 0.836589 0.802897 0.836426 C 0.807943 0.831217 0.812988 0.826009 0.818034 0.820801 C 0.822754 0.825358 0.826497 0.827962 0.829427 0.828776 C 0.832194 0.82959 0.834798 0.828939 0.837077 0.826497 C 0.839681 0.823893 0.840169 0.820964 0.838867 0.817871 C 0.837402 0.814779 0.831868 0.808268 0.82194 0.798665 C 0.821615 0.79834 0.821289 0.798014 0.820801 0.797526 C 0.810221 0.787272 0.803223 0.781413 0.799805 0.779948 C 0.796549 0.778646 0.793783 0.779134 0.791178 0.781738 C 0.7889 0.78418 0.788086 0.786784 0.7889 0.789388 C 0.789714 0.792155 0.79248 0.795573 0.797201 0.800293 C 0.798177 0.801107 0.799154 0.802083 0.80013 0.803223 Z M 0.80013 0.803223 " transform="matrix(24,0,0,24,0,0)"/>
<path style="fill-rule:nonzero;fill:rgb(100%,0%,0%);fill-opacity:1;stroke-width:0.00007615;stroke-linecap:butt;stroke-linejoin:miter;stroke:rgb(100%,0%,0%);stroke-opacity:1;stroke-miterlimit:10.433;" d="M 0.729167 0.814128 L 0.755697 0.853678 L 0.782389 0.893392 C 0.768066 0.902995 0.753581 0.912598 0.739258 0.922363 C 0.73584 0.917155 0.732422 0.912109 0.729004 0.906901 C 0.737142 0.901367 0.745443 0.895996 0.753581 0.890462 C 0.750326 0.885579 0.74707 0.880697 0.743815 0.875814 C 0.736328 0.880859 0.728678 0.886068 0.721029 0.891113 C 0.717611 0.885905 0.71403 0.880534 0.710449 0.875163 C 0.717936 0.870117 0.725586 0.864909 0.733236 0.859863 C 0.729329 0.854167 0.725423 0.848307 0.72168 0.842611 C 0.713379 0.848145 0.705241 0.853516 0.69694 0.859049 C 0.693359 0.853841 0.689779 0.848307 0.686198 0.842936 C 0.700358 0.833333 0.714844 0.82373 0.729167 0.814128 Z M 0.729167 0.814128 " transform="matrix(24,0,0,24,0,0)"/>
<path style="fill-rule:nonzero;fill:rgb(100%,100%,100%);fill-opacity:1;stroke-width:0.00007615;stroke-linecap:butt;stroke-linejoin:miter;stroke:rgb(0%,0%,0%);stroke-opacity:1;stroke-miterlimit:10.433;" d="M 0.186035 0.504883 L 0.186361 0.521159 L 0.187663 0.537109 L 0.189616 0.552734 L 0.192383 0.568197 L 0.195801 0.583496 L 0.200033 0.598307 L 0.205078 0.612956 L 0.210612 0.627279 L 0.21696 0.641113 L 0.223958 0.654622 L 0.231445 0.667806 L 0.239583 0.680501 L 0.248372 0.692871 L 0.25765 0.704753 L 0.267578 0.716146 L 0.277995 0.727051 L 0.2889 0.737467 L 0.300293 0.747396 L 0.312174 0.756673 L 0.324544 0.765462 L 0.33724 0.7736 L 0.350423 0.781087 L 0.363932 0.788086 L 0.377767 0.794434 L 0.39209 0.799967 L 0.406738 0.80485 L 0.421549 0.809082 L 0.436849 0.812663 L 0.452311 0.81543 L 0.467936 0.817383 L 0.483887 0.818685 L 0.500163 0.81901 C 0.673503 0.81901 0.81429 0.678385 0.81429 0.504883 Z M 0.186035 0.504883 " transform="matrix(24,0,0,24,0,0)"/>
<path style="fill-rule:nonzero;fill:rgb(0%,0%,49.803922%);fill-opacity:1;stroke-width:0.036;stroke-linecap:butt;stroke-linejoin:miter;stroke:rgb(0%,0%,49.803922%);stroke-opacity:1;stroke-miterlimit:10.433;" d="M 186.143319 133.655671 L 209.766261 122.036573 L 221.616206 118.727823 L 232.004145 117.49666 L 241.930398 117.958346 L 252.703075 120.343724 L 264.168281 125.499218 L 269.092934 128.654072 L 282.327937 122.344363 L 294.639568 118.727823 L 303.950239 117.804451 L 312.722276 118.573927 L 325.649489 121.420991 L 338.884492 126.961224 L 342.347138 128.961863 L 354.197083 123.344683 L 364.738917 120.343724 L 374.203484 119.112561 L 383.975841 119.420352 L 395.133257 121.728782 L 409.36858 126.807328 L 427.528236 135.887154 L 422.37274 129.269654 L 411.061429 122.806049 L 396.287472 117.49666 L 384.514475 115.18823 L 373.972641 114.803491 L 363.815545 116.111602 L 352.658129 119.266456 L 342.501034 124.11416 L 340.808185 123.036892 L 326.9576 117.265817 L 313.414805 114.264858 L 303.950239 113.495381 L 293.870091 114.418753 L 280.788983 118.266137 L 269.400724 123.652474 L 266.245869 121.651834 L 254.088133 116.265497 L 242.469031 113.649276 L 231.85025 113.18759 L 220.769782 114.418753 L 208.227308 117.958346 L 191.991344 126.191747 Z M 186.143319 133.655671 " transform="matrix(0.050765,0,0,-0.050765,-3.531598,23.363158)"/>
<path style="fill-rule:nonzero;fill:rgb(20%,69.019608%,88.235294%);fill-opacity:1;stroke-width:0.00007615;stroke-linecap:butt;stroke-linejoin:miter;stroke:rgb(0%,0%,100%);stroke-opacity:1;stroke-miterlimit:10.433;" d="M 0.81429 0.504883 L 0.813802 0.48877 L 0.812663 0.472819 L 0.810547 0.457031 L 0.80778 0.441569 L 0.804362 0.426432 L 0.80013 0.411458 L 0.795085 0.396973 L 0.789551 0.38265 L 0.783203 0.368815 L 0.776367 0.355143 L 0.768717 0.342122 L 0.760579 0.329264 L 0.75179 0.317057 L 0.742513 0.305176 L 0.732585 0.293783 L 0.722168 0.282878 L 0.711263 0.272461 L 0.69987 0.262533 L 0.687988 0.253255 L 0.675781 0.244466 L 0.662923 0.236328 L 0.64974 0.228678 L 0.63623 0.221842 L 0.622396 0.215495 L 0.608073 0.209961 L 0.593424 0.204915 L 0.578613 0.200684 L 0.563314 0.197266 L 0.547852 0.194499 L 0.532227 0.192383 L 0.516276 0.191243 L 0.500163 0.190918 C 0.32666 0.190918 0.186035 0.33138 0.186035 0.504883 Z M 0.81429 0.504883 " transform="matrix(24,0,0,24,0,0)"/>
<path style="fill-rule:nonzero;fill:rgb(20%,69.019608%,88.235294%);fill-opacity:1;stroke-width:0.00007615;stroke-linecap:butt;stroke-linejoin:miter;stroke:rgb(0%,0%,100%);stroke-opacity:1;stroke-miterlimit:10.433;" d="M 0.746257 0.700033 L 0.74056 0.707031 L 0.734701 0.713704 L 0.728678 0.720378 L 0.722493 0.726725 L 0.716146 0.73291 L 0.709635 0.738932 L 0.702962 0.744629 L 0.696126 0.750326 L 0.689128 0.755697 L 0.682129 0.760905 L 0.674805 0.765951 L 0.66748 0.770671 L 0.659993 0.775228 L 0.652344 0.779622 L 0.644694 0.783691 L 0.636882 0.78776 L 0.620931 0.794922 L 0.612793 0.798177 L 0.604492 0.80127 L 0.596191 0.804036 L 0.587728 0.806641 L 0.579264 0.808919 L 0.570801 0.811035 L 0.562174 0.812826 L 0.553385 0.814453 L 0.544596 0.815918 L 0.535807 0.817057 L 0.527018 0.817871 L 0.518066 0.818522 L 0.509115 0.818848 L 0.500163 0.81901 C 0.406738 0.81901 0.319173 0.778158 0.25944 0.706706 L 0.293294 0.723958 L 0.319824 0.731445 L 0.343262 0.734049 L 0.365723 0.733073 L 0.390299 0.727539 L 0.416016 0.716146 L 0.422689 0.711914 L 0.446777 0.723307 L 0.474447 0.731445 L 0.495768 0.733398 L 0.515788 0.731771 L 0.544434 0.725423 L 0.57373 0.713216 L 0.577311 0.710938 L 0.598796 0.721191 L 0.622396 0.727865 L 0.64388 0.730632 L 0.666178 0.729818 L 0.691081 0.724935 L 0.722331 0.713704 Z M 0.746257 0.700033 " transform="matrix(24,0,0,24,0,0)"/>
<path style="fill-rule:nonzero;fill:rgb(100%,0%,0%);fill-opacity:1;stroke-width:0.036;stroke-linecap:butt;stroke-linejoin:miter;stroke:rgb(100%,0%,0%);stroke-opacity:1;stroke-miterlimit:10.433;" d="M 326.342018 24.466924 L 310.567741 24.389976 L 305.643088 39.47172 L 300.795384 24.389976 L 284.944159 24.466924 L 297.794423 15.156256 L 292.869771 0.0745119 L 305.643088 9.462128 L 318.493353 0.0745119 L 313.568701 15.156256 Z M 326.342018 24.466924 " transform="matrix(0.050765,0,0,-0.050765,-3.531598,23.363158)"/>
<path style="fill-rule:nonzero;fill:rgb(0%,0%,76.078431%);fill-opacity:1;stroke-width:0.036;stroke-linecap:butt;stroke-linejoin:miter;stroke:rgb(0%,0%,76.078431%);stroke-opacity:1;stroke-miterlimit:10.433;" d="M 261.398164 30.622738 L 251.394964 30.622738 L 248.317056 40.087302 L 245.239148 30.622738 L 235.235948 30.622738 L 243.392404 24.774715 L 240.237548 15.310151 L 248.317056 21.158174 L 256.396564 15.310151 L 253.241709 24.774715 Z M 261.398164 30.622738 " transform="matrix(0.050765,0,0,-0.050765,-3.531598,23.363158)"/>
<path style="fill-rule:nonzero;fill:rgb(0%,0%,76.078431%);fill-opacity:1;stroke-width:0.036;stroke-linecap:butt;stroke-linejoin:miter;stroke:rgb(0%,0%,76.078431%);stroke-opacity:1;stroke-miterlimit:10.433;" d="M 377.204444 30.622738 L 367.201244 30.622738 L 364.123336 40.087302 L 361.045428 30.622738 L 351.042228 30.622738 L 359.198683 24.774715 L 356.043828 15.310151 L 364.123336 21.158174 L 372.202844 15.310151 L 369.047988 24.774715 Z M 377.204444 30.622738 " transform="matrix(0.050765,0,0,-0.050765,-3.531598,23.363158)"/>
<path style=" stroke:none;fill-rule:evenodd;fill:rgb(0%,0%,49.803922%);fill-opacity:1;" d="M 12.003906 4.582031 C 16.164062 4.582031 19.542969 7.953125 19.542969 12.117188 C 19.542969 16.28125 16.164062 19.65625 12.003906 19.65625 C 7.839844 19.65625 4.464844 16.28125 4.464844 12.117188 C 4.464844 7.953125 7.839844 4.582031 12.003906 4.582031 Z M 12.003906 4.808594 C 16.039062 4.808594 19.3125 8.082031 19.3125 12.117188 C 19.3125 16.15625 16.039062 19.429688 12.003906 19.429688 C 7.964844 19.429688 4.691406 16.15625 4.691406 12.117188 C 4.691406 8.082031 7.964844 4.808594 12.003906 4.808594 Z M 12.003906 4.808594 "/>
<path style="fill:none;stroke-width:0.00007615;stroke-linecap:butt;stroke-linejoin:miter;stroke:rgb(0%,0%,49.803922%);stroke-opacity:1;stroke-miterlimit:10.433;" d="M 0.500163 0.200358 C 0.668294 0.200358 0.804688 0.336751 0.804688 0.504883 C 0.804688 0.673177 0.668294 0.80957 0.500163 0.80957 C 0.331868 0.80957 0.195475 0.673177 0.195475 0.504883 C 0.195475 0.336751 0.331868 0.200358 0.500163 0.200358 Z M 0.500163 0.200358 " transform="matrix(24,0,0,24,0,0)"/>
<path style="fill:none;stroke-width:0.00007615;stroke-linecap:butt;stroke-linejoin:miter;stroke:rgb(0%,0%,49.803922%);stroke-opacity:1;stroke-miterlimit:10.433;" d="M 0.500163 0.190918 C 0.673503 0.190918 0.81429 0.33138 0.81429 0.504883 C 0.81429 0.678385 0.673503 0.81901 0.500163 0.81901 C 0.32666 0.81901 0.186035 0.678385 0.186035 0.504883 C 0.186035 0.33138 0.32666 0.190918 0.500163 0.190918 Z M 0.500163 0.190918 " transform="matrix(24,0,0,24,0,0)"/>
<path style="fill:none;stroke-width:0.0114221;stroke-linecap:butt;stroke-linejoin:miter;stroke:rgb(0%,0%,49.803922%);stroke-opacity:1;stroke-miterlimit:10.433;" d="M 0.500163 0.504883 L 0.500163 0.190918 " transform="matrix(24,0,0,24,0,0)"/>
<path style="fill:none;stroke-width:0.0114217;stroke-linecap:butt;stroke-linejoin:miter;stroke:rgb(0%,0%,49.803922%);stroke-opacity:1;stroke-miterlimit:10.433;" d="M 0.500163 0.504883 L 0.343099 0.23291 " transform="matrix(24,0,0,24,0,0)"/>
<path style="fill:none;stroke-width:0.0114221;stroke-linecap:butt;stroke-linejoin:miter;stroke:rgb(0%,0%,49.803922%);stroke-opacity:1;stroke-miterlimit:10.433;" d="M 0.500163 0.504883 L 0.22819 0.347819 " transform="matrix(24,0,0,24,0,0)"/>
<path style="fill:none;stroke-width:0.0114221;stroke-linecap:butt;stroke-linejoin:miter;stroke:rgb(0%,0%,49.803922%);stroke-opacity:1;stroke-miterlimit:10.433;" d="M 0.500163 0.504883 L 0.772135 0.347819 " transform="matrix(24,0,0,24,0,0)"/>
<path style="fill:none;stroke-width:0.0114219;stroke-linecap:butt;stroke-linejoin:miter;stroke:rgb(0%,0%,49.803922%);stroke-opacity:1;stroke-miterlimit:10.433;" d="M 0.500163 0.504883 L 0.657064 0.23291 " transform="matrix(24,0,0,24,0,0)"/>
<path style="fill-rule:nonzero;fill:rgb(0%,0%,49.803922%);fill-opacity:1;stroke-width:0.036;stroke-linecap:butt;stroke-linejoin:miter;stroke:rgb(0%,0%,49.803922%);stroke-opacity:1;stroke-miterlimit:10.433;" d="M 228.464551 280.933516 L 229.15708 285.011742 L 232.773622 293.0143 L 238.313856 300.478225 L 245.085253 306.2493 L 253.626447 310.250579 L 266.630607 313.86712 L 278.711395 315.329125 L 289.253229 314.17491 L 298.333057 311.173951 L 305.950879 307.018777 L 317.26219 308.249939 L 336.345218 308.55773 L 348.118215 307.403515 L 359.814265 304.248661 L 375.280751 298.246742 L 388.361859 291.013661 L 397.903374 283.241946 L 405.752038 273.623487 L 411.061429 264.312819 L 415.678291 266.082615 L 422.218845 266.467353 L 428.682451 263.543342 L 432.145097 257.695319 L 432.145097 257.464476 L 435.146058 258.695639 L 443.918095 259.849854 L 452.382341 259.542063 L 459.230686 257.772266 L 466.463769 253.69404 L 472.465689 247.615174 L 475.158858 241.382412 L 475.543597 235.688285 L 474.543277 230.301947 L 470.77284 224.376977 L 465.617344 220.606541 L 465.001763 216.297471 L 460.923535 208.448809 L 451.228126 198.13782 L 442.840827 192.828431 L 434.915214 190.135263 L 422.834426 188.365466 L 413.831546 188.057675 L 414.216285 187.595989 L 417.063349 180.824594 L 417.525036 175.130466 L 415.524396 169.513286 L 409.599423 163.588316 L 401.596863 159.433141 L 395.517995 157.971135 L 387.66933 158.355874 L 380.974881 160.587356 L 380.436247 158.509769 L 376.050228 152.815641 L 370.048308 148.737415 L 362.353539 146.428985 L 352.658129 145.813403 L 346.271471 146.044246 L 340.577341 142.812444 L 327.727077 138.96506 L 316.723556 136.964421 L 308.105415 136.964421 L 295.409045 138.349479 L 283.174362 141.350438 L 272.632528 146.044246 L 262.629327 153.20038 L 256.781303 158.586717 L 252.010545 156.970816 L 236.928797 155.277967 L 228.310656 155.585758 L 218.461351 158.201979 L 208.227308 162.895787 L 200.1478 168.897705 L 194.376723 175.746048 L 194.299775 175.746048 L 187.759221 172.898984 L 175.909276 170.128868 L 168.830088 169.821077 L 157.903516 171.821717 L 151.055171 174.899623 L 145.74578 179.824274 L 141.436709 187.134303 L 139.282174 194.290437 L 139.282174 200.13846 L 141.7445 207.987122 L 146.669152 215.220204 L 153.363602 220.452645 L 153.671392 220.606541 L 150.439589 224.992558 L 147.74642 232.456482 L 147.053891 240.382093 L 149.208426 248.38465 L 154.902556 257.772266 L 162.135639 264.774505 L 170.676833 269.006627 L 183.988784 272.85401 L 195.684833 274.008225 L 206.842249 273.161801 L 209.304575 272.54622 L 211.15132 275.16244 L 217.307135 279.240667 L 225.078853 281.010463 Z M 228.464551 280.933516 " transform="matrix(0.050765,0,0,-0.050765,-3.531598,23.363158)"/>
<path style="fill-rule:nonzero;fill:rgb(0%,0%,64.313725%);fill-opacity:1;stroke-width:0.036;stroke-linecap:butt;stroke-linejoin:miter;stroke:rgb(0%,0%,64.313725%);stroke-opacity:1;stroke-miterlimit:10.433;" d="M 232.15804 276.547499 L 233.312256 283.78058 L 236.467111 290.859766 L 241.468711 297.477265 L 247.470632 302.555812 L 255.165401 306.172352 L 267.477032 309.634998 L 278.788343 310.943108 L 288.329857 309.942788 L 296.640208 307.172672 L 304.334977 303.017498 L 304.873611 302.555812 L 317.493033 303.863922 L 336.191323 304.248661 L 347.271791 303.171393 L 358.429206 300.170434 L 373.434007 294.322411 L 385.899533 287.39712 L 394.825466 280.164039 L 402.135497 271.161161 L 407.598783 261.696598 L 408.752998 258.849534 L 416.601663 261.850493 L 421.37242 262.081336 L 425.604543 260.157644 L 428.06687 256.079418 L 428.913294 251.462557 L 436.300273 254.463517 L 444.148938 255.540784 L 451.766759 255.232993 L 457.614784 253.69404 L 463.7706 250.308342 L 468.7722 245.152848 L 470.849788 240.305145 L 471.157578 235.996075 L 470.388101 231.917849 L 467.541037 227.377936 L 461.539117 223.068866 L 460.76964 217.605582 L 457.306993 210.988082 L 448.458009 201.523518 L 440.994082 196.752762 L 433.914894 194.290437 L 422.449688 192.674536 L 411.36922 192.366745 L 405.290352 192.674536 L 410.445848 185.441455 L 412.831226 179.747327 L 413.139017 175.6691 L 411.830906 171.898664 L 406.983201 167.127908 L 400.057909 163.511368 L 395.133257 162.357153 L 388.515755 162.587996 L 380.820985 165.127269 L 378.127816 166.358432 L 376.434967 160.510409 L 372.972321 155.970496 L 368.201564 152.661746 L 361.584062 150.738054 L 352.581182 150.122473 L 345.194203 150.430264 L 338.884492 146.813723 L 326.726756 143.197182 L 316.338818 141.273491 L 308.336258 141.273491 L 296.178522 142.581601 L 284.55942 145.505613 L 274.787063 149.814682 L 265.322497 156.586077 L 257.85857 163.511368 L 251.087173 161.202938 L 236.774902 159.587037 L 228.926237 159.894827 L 219.923357 162.357153 L 210.458791 166.666222 L 203.071812 172.05256 L 197.069892 179.285641 L 195.45399 182.440495 L 191.991344 179.439536 L 186.374162 177.054158 L 175.293694 174.514885 L 169.137879 174.207094 L 159.211626 175.976891 L 153.517497 178.516164 L 149.131478 182.594391 L 145.437989 188.9041 L 143.591244 194.906018 L 143.591244 199.445931 L 145.668832 206.063431 L 149.900955 212.219244 L 155.595085 216.682209 L 162.366482 219.452326 L 157.672672 222.453285 L 154.286974 227.070145 L 151.978543 233.456802 L 151.362962 239.997354 L 153.209706 246.614854 L 158.365202 255.079098 L 164.597965 261.234912 L 172.292734 265.005348 L 184.758261 268.621888 L 195.761781 269.622208 L 206.14972 268.852731 L 211.228268 267.544621 L 214.229228 272.007586 L 219.076932 275.239388 L 225.463591 276.701394 Z M 232.15804 276.547499 " transform="matrix(0.050765,0,0,-0.050765,-3.531598,23.363158)"/>
<path style="fill-rule:nonzero;fill:rgb(0%,0%,49.803922%);fill-opacity:1;stroke-width:0.036;stroke-linecap:butt;stroke-linejoin:miter;stroke:rgb(0%,0%,49.803922%);stroke-opacity:1;stroke-miterlimit:10.433;" d="M 180.756981 348.724415 L 256.165721 297.246422 L 229.541819 283.703632 L 302.411285 236.303866 L 273.017266 223.222762 L 345.501994 175.515205 L 315.877132 162.357153 L 422.141897 99.6448 L 424.758119 103.569131 L 368.66325 160.510409 L 384.052789 160.510409 L 326.342018 221.29907 L 340.885132 221.29907 L 281.404565 282.395522 L 296.409365 282.395522 L 233.620047 348.724415 Z M 180.756981 348.724415 " transform="matrix(0.050765,0,0,-0.050765,-3.531598,23.363158)"/>
<path style="fill-rule:nonzero;fill:rgb(100%,100%,100%);fill-opacity:1;stroke-width:0.036;stroke-linecap:butt;stroke-linejoin:miter;stroke:rgb(100%,100%,100%);stroke-opacity:1;stroke-miterlimit:10.433;" d="M 194.838409 344.338398 L 264.706915 296.707789 L 238.159961 283.241946 L 311.491113 235.534389 L 282.020146 222.453285 L 354.581822 174.745728 L 325.341698 161.818519 L 411.292272 111.110003 L 358.275311 164.819478 L 373.972641 164.819478 L 316.26187 225.608139 L 330.651089 225.608139 L 271.170521 286.704591 L 286.329217 286.704591 L 231.696354 344.338398 Z M 194.838409 344.338398 " transform="matrix(0.050765,0,0,-0.050765,-3.531598,23.363158)"/>
<path style=" stroke:none;fill-rule:nonzero;fill:rgb(100%,0%,0%);fill-opacity:1;" d="M 1.785156 14.273438 L 1.734375 14.28125 L 1.6875 14.289062 L 1.640625 14.292969 L 1.59375 14.300781 L 1.550781 14.304688 L 1.511719 14.308594 L 1.46875 14.3125 L 1.429688 14.316406 L 1.394531 14.320312 L 1.375 14.320312 L 1.359375 14.324219 L 1.292969 14.324219 L 1.277344 14.328125 L 1.183594 14.328125 C 1.054688 14.328125 0.953125 14.304688 0.875 14.273438 C 0.769531 14.21875 0.679688 14.144531 0.617188 14.046875 C 0.554688 13.949219 0.515625 13.824219 0.496094 13.675781 C 0.472656 13.53125 0.480469 13.398438 0.515625 13.289062 C 0.546875 13.179688 0.613281 13.082031 0.703125 13.007812 C 0.769531 12.949219 0.863281 12.902344 0.984375 12.867188 C 1.109375 12.828125 1.304688 12.792969 1.578125 12.753906 C 1.851562 12.71875 2.050781 12.699219 2.175781 12.703125 C 2.304688 12.703125 2.410156 12.722656 2.488281 12.761719 C 2.597656 12.8125 2.683594 12.886719 2.746094 12.984375 C 2.8125 13.082031 2.855469 13.203125 2.875 13.351562 C 2.894531 13.5 2.886719 13.628906 2.851562 13.742188 C 2.8125 13.851562 2.753906 13.949219 2.660156 14.027344 C 2.597656 14.082031 2.503906 14.128906 2.378906 14.164062 C 2.261719 14.203125 2.058594 14.238281 1.785156 14.273438 Z M 1.871094 13.277344 L 1.769531 13.289062 L 1.664062 13.296875 L 1.5625 13.304688 L 1.457031 13.3125 C 1.207031 13.335938 1.050781 13.363281 0.996094 13.402344 C 0.9375 13.4375 0.910156 13.5 0.917969 13.582031 C 0.925781 13.664062 0.960938 13.71875 1.023438 13.742188 C 1.085938 13.773438 1.246094 13.773438 1.492188 13.753906 C 1.632812 13.742188 1.769531 13.734375 1.90625 13.71875 C 2.152344 13.699219 2.308594 13.671875 2.367188 13.632812 C 2.429688 13.59375 2.457031 13.535156 2.449219 13.449219 C 2.441406 13.367188 2.40625 13.3125 2.34375 13.289062 C 2.277344 13.261719 2.117188 13.257812 1.871094 13.277344 Z M 1.871094 13.277344 "/>
<path style="fill:none;stroke-width:0.00007615;stroke-linecap:butt;stroke-linejoin:miter;stroke:rgb(100%,0%,0%);stroke-opacity:1;stroke-miterlimit:10.433;" d="M 0.0779622 0.553223 L 0.0737305 0.553711 L 0.0693359 0.554036 L 0.0651042 0.554362 L 0.0607096 0.554688 C 0.050293 0.555664 0.0437826 0.556803 0.0415039 0.558431 C 0.0390625 0.559896 0.0379232 0.5625 0.0382487 0.565918 C 0.0385742 0.569336 0.0400391 0.571615 0.0426432 0.572591 C 0.0452474 0.573893 0.0519206 0.573893 0.0621745 0.573079 C 0.0680339 0.572591 0.0737305 0.572266 0.0794271 0.571615 C 0.089681 0.570801 0.0961914 0.569661 0.0986328 0.568034 C 0.101237 0.566406 0.102376 0.563965 0.102051 0.560384 C 0.101725 0.556966 0.10026 0.554688 0.0976562 0.553711 C 0.0948893 0.552572 0.0882161 0.552409 0.0779622 0.553223 Z M 0.0743815 0.594727 L 0.0722656 0.595052 L 0.0703125 0.595378 L 0.0683594 0.59554 L 0.0664062 0.595866 L 0.0646159 0.596029 L 0.0629883 0.596191 L 0.0611979 0.596354 L 0.0595703 0.596517 L 0.0581055 0.59668 L 0.0572917 0.59668 L 0.0566406 0.596842 L 0.0538737 0.596842 L 0.0532227 0.597005 L 0.0493164 0.597005 C 0.0439453 0.597005 0.0397135 0.596029 0.0364583 0.594727 C 0.0320638 0.592448 0.0283203 0.589355 0.0257161 0.585286 C 0.023112 0.581217 0.0214844 0.576009 0.0206706 0.569824 C 0.019694 0.563802 0.0200195 0.558268 0.0214844 0.553711 C 0.0227865 0.549154 0.0255534 0.545085 0.0292969 0.541992 C 0.0320638 0.539551 0.0359701 0.537598 0.0410156 0.536133 C 0.046224 0.534505 0.054362 0.53304 0.0657552 0.531413 C 0.0771484 0.529948 0.0854492 0.529134 0.0906576 0.529297 C 0.0960286 0.529297 0.100423 0.530111 0.103678 0.531738 C 0.108236 0.533854 0.111816 0.536947 0.114421 0.541016 C 0.117188 0.545085 0.118978 0.55013 0.119792 0.556315 C 0.120605 0.5625 0.12028 0.567871 0.118815 0.572591 C 0.117188 0.577148 0.114746 0.581217 0.11084 0.584473 C 0.108236 0.586751 0.104329 0.588704 0.0991211 0.590169 C 0.0942383 0.591797 0.0857747 0.593262 0.0743815 0.594727 Z M 0.0743815 0.594727 " transform="matrix(24,0,0,24,0,0)"/>
<path style=" stroke:none;fill-rule:nonzero;fill:rgb(100%,0%,0%);fill-opacity:1;" d="M 3.082031 9.742188 L 2.085938 9.128906 L 1.085938 8.515625 C 1.152344 8.316406 1.222656 8.113281 1.292969 7.914062 C 2.070312 8.007812 2.84375 8.105469 3.621094 8.203125 C 3.5625 8.371094 3.503906 8.539062 3.445312 8.707031 C 3.300781 8.683594 3.152344 8.65625 3.007812 8.628906 C 2.960938 8.757812 2.917969 8.890625 2.867188 9.023438 C 3 9.09375 3.128906 9.164062 3.261719 9.234375 C 3.203125 9.402344 3.140625 9.570312 3.082031 9.742188 Z M 2.40625 8.832031 L 2.417969 8.796875 L 2.464844 8.691406 L 2.492188 8.617188 L 2.523438 8.546875 C 2.199219 8.464844 1.871094 8.382812 1.542969 8.300781 C 1.832031 8.476562 2.117188 8.652344 2.40625 8.832031 Z M 2.40625 8.832031 "/>
<path style="fill:none;stroke-width:0.00007615;stroke-linecap:butt;stroke-linejoin:miter;stroke:rgb(100%,0%,0%);stroke-opacity:1;stroke-miterlimit:10.433;" d="M 0.10026 0.368001 L 0.100749 0.366536 L 0.102702 0.362142 L 0.103841 0.359049 L 0.105143 0.35612 C 0.0916341 0.352702 0.0779622 0.349284 0.0642904 0.345866 C 0.0763346 0.35319 0.0882161 0.360514 0.10026 0.368001 Z M 0.128418 0.405924 L 0.0869141 0.380371 L 0.0452474 0.354818 C 0.0480143 0.346517 0.050944 0.338053 0.0538737 0.329753 C 0.086263 0.333659 0.11849 0.337728 0.150879 0.341797 C 0.148438 0.348796 0.145996 0.355794 0.143555 0.362793 C 0.137533 0.361816 0.131348 0.360677 0.125326 0.359538 C 0.123372 0.364909 0.121582 0.370443 0.119466 0.375977 C 0.125 0.378906 0.130371 0.381836 0.135905 0.384766 C 0.133464 0.391764 0.130859 0.398763 0.128418 0.405924 Z M 0.128418 0.405924 " transform="matrix(24,0,0,24,0,0)"/>
<path style=" stroke:none;fill-rule:nonzero;fill:rgb(100%,0%,0%);fill-opacity:1;" d="M 5.84375 19.03125 L 3.828125 20.226562 C 3.683594 20.070312 3.539062 19.917969 3.394531 19.761719 C 3.839844 19.121094 4.285156 18.480469 4.734375 17.839844 C 4.855469 17.96875 4.976562 18.097656 5.101562 18.230469 C 5.007812 18.34375 4.917969 18.460938 4.824219 18.578125 C 4.917969 18.679688 5.015625 18.785156 5.109375 18.886719 C 5.230469 18.804688 5.355469 18.71875 5.476562 18.636719 C 5.597656 18.765625 5.722656 18.898438 5.84375 19.03125 Z M 4.726562 19.175781 L 4.703125 19.144531 L 4.675781 19.117188 L 4.628906 19.058594 L 4.527344 18.941406 C 4.304688 19.195312 4.085938 19.449219 3.867188 19.703125 C 4.152344 19.53125 4.441406 19.351562 4.726562 19.175781 Z M 4.726562 19.175781 "/>
<path style="fill:none;stroke-width:0.00007615;stroke-linecap:butt;stroke-linejoin:miter;stroke:rgb(100%,0%,0%);stroke-opacity:1;stroke-miterlimit:10.433;" d="M 0.19694 0.798991 L 0.195964 0.797689 L 0.194824 0.796549 L 0.192871 0.794108 L 0.188639 0.789225 C 0.179362 0.799805 0.170247 0.810384 0.161133 0.820964 C 0.173014 0.813802 0.185059 0.806315 0.19694 0.798991 Z M 0.24349 0.792969 L 0.159505 0.842773 C 0.153483 0.836263 0.147461 0.829915 0.141439 0.823405 C 0.159993 0.796712 0.178548 0.77002 0.197266 0.743327 C 0.202311 0.748698 0.207357 0.754069 0.212565 0.759603 C 0.208659 0.764323 0.204915 0.769206 0.201009 0.774089 C 0.204915 0.77832 0.208984 0.782715 0.212891 0.786947 C 0.217936 0.783529 0.223145 0.779948 0.22819 0.77653 C 0.233236 0.781901 0.238444 0.787435 0.24349 0.792969 Z M 0.24349 0.792969 " transform="matrix(24,0,0,24,0,0)"/>
<path style=" stroke:none;fill-rule:nonzero;fill:rgb(100%,0%,0%);fill-opacity:1;" d="M 10.28125 3.015625 L 10.421875 1.855469 L 10.566406 0.691406 C 10.777344 0.671875 10.988281 0.652344 11.199219 0.628906 C 11.433594 1.375 11.671875 2.121094 11.90625 2.867188 C 11.726562 2.882812 11.550781 2.898438 11.371094 2.914062 C 11.335938 2.773438 11.300781 2.628906 11.265625 2.484375 C 11.125 2.5 10.984375 2.511719 10.84375 2.523438 C 10.839844 2.671875 10.828125 2.820312 10.820312 2.96875 C 10.640625 2.984375 10.460938 3 10.28125 3.015625 Z M 10.902344 2.042969 L 10.980469 2.039062 L 11.054688 2.035156 L 11.210938 2.027344 C 11.144531 1.699219 11.078125 1.371094 11.011719 1.039062 C 10.976562 1.371094 10.941406 1.707031 10.902344 2.042969 Z M 10.902344 2.042969 "/>
<path style="fill:none;stroke-width:0.00007615;stroke-linecap:butt;stroke-linejoin:miter;stroke:rgb(100%,0%,0%);stroke-opacity:1;stroke-miterlimit:10.433;" d="M 0.454264 0.0851237 L 0.45752 0.0849609 L 0.460612 0.0847982 L 0.467122 0.0844727 C 0.464355 0.0708008 0.461589 0.0571289 0.458822 0.0432943 C 0.457357 0.0571289 0.455892 0.0711263 0.454264 0.0851237 Z M 0.428385 0.125651 L 0.434245 0.0773112 L 0.440267 0.0288086 C 0.449056 0.0279948 0.457845 0.027181 0.466634 0.0262044 C 0.4764 0.0572917 0.486328 0.0883789 0.496094 0.119466 C 0.488607 0.120117 0.481283 0.120768 0.473796 0.121419 C 0.472331 0.11556 0.470866 0.109538 0.469401 0.103516 C 0.463542 0.104167 0.457682 0.104655 0.451823 0.105143 C 0.45166 0.111328 0.451172 0.117513 0.450846 0.123698 C 0.443359 0.124349 0.435872 0.125 0.428385 0.125651 Z M 0.428385 0.125651 " transform="matrix(24,0,0,24,0,0)"/>
<path style=" stroke:none;fill-rule:nonzero;fill:rgb(100%,0%,0%);fill-opacity:1;" d="M 19.742188 4.855469 L 19.742188 4.859375 L 19.746094 4.863281 L 19.746094 4.867188 L 19.75 4.867188 L 19.75 4.871094 L 19.753906 4.871094 L 19.753906 4.875 L 19.757812 4.878906 L 19.757812 4.882812 L 19.761719 4.882812 L 19.761719 4.886719 C 19.769531 4.894531 19.777344 4.90625 19.78125 4.910156 C 19.851562 4.996094 19.917969 5.042969 19.980469 5.046875 C 20.046875 5.054688 20.117188 5.027344 20.199219 4.957031 C 20.277344 4.894531 20.3125 4.832031 20.316406 4.769531 C 20.320312 4.710938 20.285156 4.636719 20.214844 4.550781 C 20.210938 4.546875 20.203125 4.539062 20.195312 4.523438 C 20.183594 4.519531 20.175781 4.507812 20.167969 4.5 C 20.027344 4.617188 19.886719 4.738281 19.742188 4.855469 Z M 18.351562 5.386719 L 19.207031 4.625 L 20.058594 3.859375 C 20.191406 4.007812 20.324219 4.15625 20.460938 4.308594 C 20.59375 4.457031 20.679688 4.570312 20.726562 4.644531 C 20.773438 4.722656 20.796875 4.800781 20.800781 4.871094 C 20.804688 4.957031 20.789062 5.035156 20.75 5.113281 C 20.714844 5.1875 20.65625 5.261719 20.574219 5.335938 C 20.476562 5.421875 20.378906 5.476562 20.28125 5.503906 C 20.183594 5.527344 20.082031 5.527344 19.976562 5.492188 C 20.03125 5.664062 19.960938 5.84375 19.761719 6.035156 C 19.757812 6.039062 19.757812 6.039062 19.753906 6.039062 C 19.734375 6.058594 19.707031 6.089844 19.664062 6.125 C 19.476562 6.300781 19.382812 6.441406 19.390625 6.542969 C 19.25 6.390625 19.113281 6.234375 18.972656 6.078125 C 19 6.035156 19.027344 5.996094 19.0625 5.957031 C 19.09375 5.917969 19.136719 5.875 19.179688 5.835938 C 19.207031 5.8125 19.242188 5.78125 19.28125 5.75 C 19.324219 5.714844 19.347656 5.695312 19.359375 5.683594 C 19.460938 5.589844 19.523438 5.511719 19.539062 5.449219 C 19.550781 5.390625 19.523438 5.324219 19.460938 5.253906 C 19.4375 5.226562 19.414062 5.199219 19.390625 5.171875 C 19.164062 5.375 18.933594 5.578125 18.707031 5.78125 C 18.589844 5.652344 18.472656 5.519531 18.351562 5.386719 Z M 18.351562 5.386719 "/>
<path style="fill:none;stroke-width:0.00007615;stroke-linecap:butt;stroke-linejoin:miter;stroke:rgb(100%,0%,0%);stroke-opacity:1;stroke-miterlimit:10.433;" d="M 0.822591 0.202311 L 0.822591 0.202474 L 0.822754 0.202637 L 0.822754 0.202799 L 0.822917 0.202799 L 0.822917 0.202962 L 0.823079 0.202962 L 0.823079 0.203125 L 0.823242 0.203288 L 0.823242 0.203451 L 0.823405 0.203451 L 0.823405 0.203613 C 0.82373 0.203939 0.824056 0.204427 0.824219 0.20459 C 0.827148 0.208171 0.829915 0.210124 0.83252 0.210286 C 0.835286 0.210612 0.838216 0.209473 0.841634 0.206543 C 0.844889 0.203939 0.846354 0.201335 0.846517 0.19873 C 0.84668 0.196289 0.845215 0.193197 0.842285 0.189616 C 0.842122 0.189453 0.841797 0.189128 0.841471 0.188477 C 0.840983 0.188314 0.840658 0.187826 0.840332 0.1875 C 0.834473 0.192383 0.828613 0.197428 0.822591 0.202311 Z M 0.822591 0.202311 " transform="matrix(24,0,0,24,0,0)"/>
<path style="fill:none;stroke-width:0.00007615;stroke-linecap:butt;stroke-linejoin:miter;stroke:rgb(100%,0%,0%);stroke-opacity:1;stroke-miterlimit:10.433;" d="M 0.764648 0.224447 L 0.800293 0.192708 L 0.835775 0.160807 C 0.841309 0.166992 0.846842 0.173177 0.852539 0.179525 C 0.858073 0.18571 0.861654 0.19043 0.863607 0.193522 C 0.86556 0.196777 0.866536 0.200033 0.866699 0.202962 C 0.866862 0.206543 0.866211 0.209798 0.864583 0.213053 C 0.863118 0.216146 0.860677 0.219238 0.857259 0.222331 C 0.85319 0.225911 0.849121 0.22819 0.845052 0.229329 C 0.840983 0.230306 0.836751 0.230306 0.832357 0.228841 C 0.834635 0.236003 0.831706 0.24349 0.823405 0.251465 C 0.823242 0.251628 0.823242 0.251628 0.823079 0.251628 C 0.822266 0.252441 0.821126 0.253743 0.819336 0.255208 C 0.811523 0.262533 0.807617 0.268392 0.807943 0.272624 C 0.802083 0.266276 0.796387 0.259766 0.790527 0.253255 C 0.791667 0.251465 0.792806 0.249837 0.794271 0.24821 C 0.795573 0.246582 0.797363 0.244792 0.799154 0.243164 C 0.800293 0.242188 0.801758 0.240885 0.803385 0.239583 C 0.805176 0.238118 0.806152 0.237305 0.806641 0.236816 C 0.810872 0.23291 0.813477 0.229655 0.814128 0.227051 C 0.814616 0.224609 0.813477 0.221842 0.810872 0.218913 C 0.809896 0.217773 0.808919 0.216634 0.807943 0.215495 C 0.798503 0.223958 0.7889 0.232422 0.77946 0.240885 C 0.774577 0.235514 0.769694 0.22998 0.764648 0.224447 Z M 0.764648 0.224447 " transform="matrix(24,0,0,24,0,0)"/>
<path style=" stroke:none;fill-rule:nonzero;fill:rgb(100%,0%,0%);fill-opacity:1;" d="M 21.246094 12.5 L 23.519531 12.789062 C 23.492188 12.988281 23.464844 13.1875 23.441406 13.386719 C 23.417969 13.582031 23.390625 13.722656 23.359375 13.808594 C 23.332031 13.894531 23.292969 13.960938 23.238281 14.011719 C 23.175781 14.070312 23.105469 14.109375 23.023438 14.132812 C 22.941406 14.15625 22.847656 14.160156 22.738281 14.144531 C 22.609375 14.128906 22.503906 14.089844 22.417969 14.03125 C 22.335938 13.976562 22.273438 13.898438 22.230469 13.792969 C 22.136719 13.949219 21.953125 14.011719 21.679688 13.988281 C 21.671875 13.988281 21.671875 13.988281 21.671875 13.988281 C 21.644531 13.984375 21.601562 13.980469 21.546875 13.972656 C 21.292969 13.945312 21.125 13.964844 21.046875 14.039062 C 21.074219 13.832031 21.101562 13.625 21.128906 13.417969 C 21.179688 13.410156 21.226562 13.40625 21.28125 13.40625 C 21.332031 13.40625 21.390625 13.410156 21.449219 13.417969 C 21.484375 13.421875 21.53125 13.425781 21.582031 13.4375 C 21.632812 13.445312 21.664062 13.449219 21.679688 13.453125 C 21.820312 13.472656 21.917969 13.464844 21.972656 13.433594 C 22.03125 13.40625 22.0625 13.339844 22.074219 13.25 C 22.078125 13.214844 22.082031 13.175781 22.089844 13.140625 C 21.785156 13.101562 21.480469 13.0625 21.179688 13.023438 C 21.199219 12.851562 21.222656 12.675781 21.246094 12.5 Z M 22.5625 13.203125 L 22.5625 13.210938 L 22.558594 13.210938 L 22.558594 13.222656 L 22.554688 13.226562 L 22.554688 13.234375 C 22.550781 13.25 22.546875 13.261719 22.546875 13.265625 C 22.527344 13.375 22.535156 13.457031 22.574219 13.507812 C 22.613281 13.5625 22.679688 13.597656 22.785156 13.617188 C 22.882812 13.632812 22.953125 13.617188 23.003906 13.582031 C 23.050781 13.542969 23.085938 13.46875 23.101562 13.359375 C 23.105469 13.355469 23.105469 13.339844 23.109375 13.328125 C 23.109375 13.3125 23.109375 13.304688 23.109375 13.292969 C 22.925781 13.265625 22.746094 13.234375 22.5625 13.203125 Z M 22.5625 13.203125 "/>
<path style="fill:none;stroke-width:0.00007615;stroke-linecap:butt;stroke-linejoin:miter;stroke:rgb(100%,0%,0%);stroke-opacity:1;stroke-miterlimit:10.433;" d="M 0.940104 0.55013 L 0.940104 0.550456 L 0.939941 0.550456 L 0.939941 0.550944 L 0.939779 0.551107 L 0.939779 0.551432 C 0.939616 0.552083 0.939453 0.552572 0.939453 0.552734 C 0.938639 0.557292 0.938965 0.56071 0.940592 0.562826 C 0.94222 0.565104 0.944987 0.566569 0.949382 0.567383 C 0.953451 0.568034 0.95638 0.567383 0.958496 0.565918 C 0.960449 0.56429 0.961914 0.561198 0.962565 0.556641 C 0.962728 0.556478 0.962728 0.555827 0.962891 0.555339 C 0.962891 0.554688 0.962891 0.554362 0.962891 0.553874 C 0.955241 0.552734 0.947754 0.551432 0.940104 0.55013 Z M 0.885254 0.520833 L 0.97998 0.532878 C 0.978841 0.541178 0.977702 0.549479 0.976725 0.55778 C 0.975749 0.565918 0.974609 0.571777 0.973307 0.575358 C 0.972168 0.578939 0.97054 0.581706 0.968262 0.583822 C 0.965658 0.586263 0.962728 0.587891 0.95931 0.588867 C 0.955892 0.589844 0.951986 0.590007 0.947428 0.589355 C 0.942057 0.588704 0.937663 0.587077 0.934082 0.584635 C 0.930664 0.582357 0.92806 0.579102 0.92627 0.574707 C 0.922363 0.581217 0.914714 0.583822 0.90332 0.582845 C 0.902995 0.582845 0.902995 0.582845 0.902995 0.582845 C 0.901855 0.582682 0.900065 0.58252 0.897786 0.582194 C 0.887207 0.581055 0.880208 0.581868 0.876953 0.584961 C 0.878092 0.576335 0.879232 0.567708 0.880371 0.559082 C 0.882487 0.558757 0.88444 0.558594 0.886719 0.558594 C 0.888835 0.558594 0.891276 0.558757 0.893717 0.559082 C 0.895182 0.559245 0.897135 0.559408 0.899251 0.559896 C 0.901367 0.560221 0.902669 0.560384 0.90332 0.560547 C 0.90918 0.561361 0.913249 0.561035 0.915527 0.559733 C 0.917969 0.558594 0.919271 0.555827 0.919759 0.552083 C 0.919922 0.550618 0.920085 0.548991 0.92041 0.547526 C 0.907715 0.545898 0.89502 0.544271 0.882487 0.542643 C 0.883301 0.535482 0.884277 0.528158 0.885254 0.520833 Z M 0.885254 0.520833 " transform="matrix(24,0,0,24,0,0)"/>
</g>
</svg>
