<?xml version="1.0" encoding="UTF-8"?>
<svg xmlns="http://www.w3.org/2000/svg" xmlns:xlink="http://www.w3.org/1999/xlink" width="24px" height="26px" viewBox="0 0 24 26" version="1.1">
<g id="surface1">
<path style=" stroke:none;fill-rule:nonzero;fill:rgb(0%,0%,0%);fill-opacity:1;" d="M 0.5 0.183594 L 2.234375 4.753906 L 2.234375 18.324219 L 0.34375 22.425781 L 7.574219 22.425781 L 7.574219 13.972656 L 10.519531 20.527344 L 13.394531 20.527344 L 16.335938 13.972656 L 16.335938 22.425781 L 23.667969 22.425781 L 21.675781 18.316406 L 21.675781 4.730469 L 23.382812 0.183594 L 16.597656 0.183594 L 11.953125 10.792969 L 7.3125 0.183594 Z M 0.144531 23.734375 L 0.769531 24.761719 L 0.144531 25.808594 L 23.871094 25.808594 L 23.242188 24.757812 L 23.871094 23.734375 Z M 0.144531 23.734375 "/>
<path style=" stroke:none;fill-rule:nonzero;fill:rgb(100%,82.352941%,0%);fill-opacity:1;" d="M 1.257812 0.703125 Z M 1.257812 0.703125 L 2.761719 4.660156 L 2.757812 18.4375 L 1.160156 21.90625 L 7.050781 21.90625 L 7.050781 11.523438 L 10.859375 20.007812 L 13.050781 20.007812 L 16.859375 11.523438 L 16.859375 21.90625 L 22.832031 21.90625 L 21.152344 18.4375 L 21.152344 4.640625 L 22.625 0.703125 L 16.941406 0.703125 L 11.953125 12.097656 L 6.964844 0.703125 Z M 1.691406 24.089844 L 1.691406 25.449219 L 2.785156 25.449219 L 2.785156 24.765625 L 1.730469 24.089844 Z M 3.007812 24.089844 L 3.007812 24.738281 L 4.082031 25.449219 L 4.101562 25.449219 L 4.101562 24.089844 Z M 5.234375 24.089844 L 5.421875 24.210938 L 5.421875 24.089844 Z M 6.957031 24.089844 L 6.957031 25.226562 L 7.292969 25.449219 L 8.132812 25.449219 L 8.136719 24.089844 Z M 17.214844 24.089844 L 17.214844 25.449219 L 18.308594 25.449219 L 18.308594 24.765625 L 17.253906 24.089844 Z M 18.53125 24.089844 L 18.53125 24.738281 L 19.601562 25.449219 L 19.621094 25.449219 L 19.621094 24.089844 Z M 20.753906 24.089844 L 20.941406 24.210938 L 20.941406 24.089844 Z M 22.476562 24.089844 L 22.476562 25.226562 L 22.8125 25.449219 L 23.203125 25.449219 L 22.726562 24.757812 L 23.199219 24.089844 Z M 5.640625 24.527344 L 5.640625 25.449219 L 6.734375 25.449219 L 6.734375 25.238281 Z M 21.160156 24.527344 L 21.160156 25.449219 L 22.253906 25.449219 L 22.253906 25.238281 Z M 21.160156 24.527344 "/>
<path style=" stroke:none;fill-rule:nonzero;fill:rgb(88.627451%,9.411765%,20%);fill-opacity:1;" d="M 1.808594 1.078125 L 1.808594 1.082031 L 3.144531 4.59375 L 3.140625 18.519531 L 1.753906 21.527344 L 6.667969 21.527344 L 6.667969 9.738281 L 11.109375 19.632812 L 12.804688 19.632812 L 17.242188 9.742188 L 17.242188 21.527344 L 22.226562 21.527344 L 20.769531 18.519531 L 20.769531 4.570312 L 22.078125 1.078125 L 17.195312 1.078125 L 11.953125 13.046875 L 6.714844 1.078125 Z M 9.066406 24.09375 C 9.035156 24.160156 9.007812 24.238281 8.992188 24.324219 C 8.527344 24.351562 8.1875 24.539062 8.1875 24.765625 L 12 24.765625 L 12 24.09375 L 11.417969 24.09375 L 11.417969 24.253906 L 9.941406 24.253906 C 9.925781 24.195312 9.90625 24.140625 9.882812 24.09375 Z M 12 24.765625 L 12 25.449219 L 12.578125 25.449219 L 12.578125 25.28125 L 14.070312 25.28125 C 14.085938 25.339844 14.109375 25.398438 14.136719 25.449219 L 14.941406 25.449219 C 14.976562 25.378906 15.003906 25.296875 15.023438 25.210938 C 15.488281 25.179688 15.824219 24.996094 15.824219 24.765625 Z M 15.824219 24.765625 L 15.890625 24.765625 L 15.890625 24.09375 L 14.945312 24.09375 C 14.976562 24.160156 15.003906 24.238281 15.023438 24.324219 C 15.488281 24.351562 15.824219 24.539062 15.824219 24.765625 Z M 8.1875 24.765625 L 8.132812 24.765625 L 8.132812 25.449219 L 9.070312 25.449219 C 9.039062 25.378906 9.011719 25.296875 8.992188 25.210938 C 8.523438 25.179688 8.1875 24.996094 8.1875 24.765625 Z M 12.578125 24.09375 L 12.578125 24.253906 L 14.070312 24.253906 C 14.085938 24.195312 14.105469 24.140625 14.132812 24.09375 Z M 9.941406 25.28125 C 9.925781 25.339844 9.902344 25.398438 9.878906 25.449219 L 11.417969 25.449219 L 11.417969 25.28125 Z M 9.941406 25.28125 "/>
<path style=" stroke:none;fill-rule:nonzero;fill:rgb(100%,100%,100%);fill-opacity:1;" d="M 8.136719 24.09375 L 8.132812 24.765625 L 8.1875 24.765625 C 8.191406 24.539062 8.527344 24.351562 8.992188 24.324219 C 9.007812 24.238281 9.035156 24.160156 9.070312 24.09375 Z M 8.1875 24.765625 C 8.1875 24.992188 8.527344 25.179688 8.992188 25.210938 C 9.011719 25.296875 9.039062 25.378906 9.074219 25.449219 L 9.878906 25.449219 C 9.902344 25.398438 9.925781 25.339844 9.941406 25.28125 L 11.417969 25.28125 L 11.417969 25.449219 L 12 25.449219 L 12 24.765625 Z M 12 24.765625 L 15.824219 24.765625 C 15.824219 24.539062 15.488281 24.351562 15.023438 24.324219 C 15.003906 24.238281 14.976562 24.160156 14.945312 24.09375 L 14.132812 24.09375 C 14.109375 24.140625 14.085938 24.195312 14.070312 24.253906 L 12.578125 24.253906 L 12.578125 24.09375 L 12 24.09375 Z M 15.824219 24.765625 C 15.824219 24.992188 15.488281 25.179688 15.023438 25.210938 C 15.003906 25.296875 14.976562 25.378906 14.941406 25.449219 L 15.890625 25.449219 L 15.890625 24.765625 Z M 9.882812 24.09375 C 9.90625 24.140625 9.925781 24.195312 9.941406 24.253906 L 11.417969 24.253906 L 11.417969 24.09375 Z M 12.578125 25.28125 L 12.578125 25.449219 L 14.136719 25.449219 C 14.109375 25.398438 14.089844 25.339844 14.070312 25.28125 Z M 12.578125 25.28125 "/>
</g>
</svg>
